<?xml version="1.0" standalone="no"?>
<!DOCTYPE svg PUBLIC "-//W3C//DTD SVG 20010904//EN"
 "http://www.w3.org/TR/2001/REC-SVG-20010904/DTD/svg10.dtd">
<svg version="1.0" xmlns="http://www.w3.org/2000/svg"
 width="1204.000000pt" height="712.000000pt" viewBox="0 0 1204.000000 712.000000"
 preserveAspectRatio="xMidYMid meet">

<g transform="translate(0.000000,712.000000) scale(0.100000,-0.100000)"
fill="#000000" stroke="none">
<path d="M160 3688 l0 -3273 24 -50 c42 -91 151 -168 274 -194 71 -15 11044
-16 11122 -1 121 23 231 96 274 182 l26 52 0 3155 c0 3073 -1 3157 -19 3198
-25 53 -83 111 -148 146 -114 61 336 57 -5870 57 l-5683 0 0 -3272z m2210 317
c0 -2095 0 -2137 19 -2174 39 -76 -9 -71 749 -71 l680 0 11 -27 c31 -80 321
-917 321 -929 0 -16 -463 -17 -1795 -5 l-710 6 -78 37 c-133 64 -226 176 -271
327 -15 50 -16 281 -16 2513 l0 2458 545 0 545 0 0 -2135z m4566 171 c97 -48
197 -144 240 -232 l29 -59 0 -579 0 -579 -800 -403 c-440 -222 -806 -404 -813
-404 -10 0 -12 105 -10 508 l3 507 257 155 c142 85 261 158 264 163 11 11
-775 9 -817 -3 -19 -5 -48 -24 -65 -41 l-29 -30 -3 -678 c-2 -672 -2 -678 18
-704 12 -14 37 -31 57 -36 24 -7 364 -8 989 -4 l952 6 21 -69 c11 -38 79 -253
150 -479 l129 -410 -102 -8 c-55 -4 -726 -6 -1491 -5 l-1390 3 -57 21 c-119
46 -218 136 -275 252 l-37 73 -4 1378 -5 1378 25 54 c28 60 106 151 166 193
22 15 67 38 99 52 l58 24 1181 -3 1180 -2 80 -39z m3567 16 c81 -33 168 -116
209 -200 l33 -67 0 -1405 c0 -1327 -1 -1408 -18 -1457 -38 -108 -134 -205
-247 -250 -42 -17 -122 -18 -1330 -18 l-1285 0 -58 22 c-122 46 -218 151 -251
275 -16 58 -17 175 -14 1443 l3 1380 23 57 c27 68 105 157 169 195 93 54 28
52 1418 50 l1290 -2 58 -23z"/>
<path d="M8667 3246 c-49 -18 -64 -32 -88 -77 -18 -37 -19 -66 -19 -664 0
-603 1 -627 20 -664 11 -22 36 -50 57 -62 l38 -24 470 0 c456 0 471 1 505 21
19 11 45 38 57 60 l23 39 -3 640 -2 640 -23 33 c-49 68 -37 67 -542 69 -363 2
-463 0 -493 -11z"/>
</g>
</svg>
