<?xml version="1.0" standalone="no"?>
<!DOCTYPE svg PUBLIC "-//W3C//DTD SVG 20010904//EN"
 "http://www.w3.org/TR/2001/REC-SVG-20010904/DTD/svg10.dtd">
<svg version="1.0" xmlns="http://www.w3.org/2000/svg"
 width="170.000000pt" height="209.000000pt" viewBox="0 0 170.000000 209.000000"
 preserveAspectRatio="xMidYMid meet">

<g transform="translate(0.000000,209.000000) scale(0.100000,-0.100000)"
fill="#000000" stroke="none">
<path d="M2 1368 c2 -398 4 -608 5 -468 7 662 7 1190 1 1190 -5 0 -7 -325 -6
-722z"/>
<path d="M99 2006 c-2 -2 -3 -68 -1 -145 l3 -141 750 0 749 0 0 145 0 145
-748 0 c-412 0 -751 -2 -753 -4z m1491 -141 l0 -135 -740 0 -740 0 0 135 0
135 740 0 740 0 0 -135z"/>
<path d="M399 1963 c-13 -16 -12 -17 4 -4 9 7 17 15 17 17 0 8 -8 3 -21 -13z"/>
<path d="M487 1963 c-4 -3 -7 -48 -7 -99 0 -76 3 -93 16 -98 24 -9 44 12 44
45 0 26 3 29 33 29 42 0 67 26 67 68 0 42 -31 62 -96 62 -28 0 -54 -3 -57 -7z
m125 -20 c40 -36 12 -93 -48 -93 -32 0 -34 -2 -34 -35 0 -28 -4 -35 -20 -35
-18 0 -20 7 -20 83 0 46 3 87 7 90 13 14 96 7 115 -10z"/>
<path d="M531 1898 c2 -31 2 -31 6 -5 4 22 9 28 25 25 26 -4 35 -25 13 -31
-12 -4 -11 -5 2 -3 11 1 18 9 18 21 0 15 -8 21 -32 23 -32 3 -33 2 -32 -30z"/>
<path d="M681 1952 c-5 -10 -24 -54 -41 -97 -24 -61 -28 -80 -18 -86 22 -14
40 -6 51 24 10 26 61 22 80 -7 15 -23 17 -23 100 -17 4 1 7 18 8 39 l1 37 10
-37 c10 -40 35 -56 53 -36 20 24 57 163 37 143 -5 -5 -15 -38 -22 -72 -10 -50
-17 -63 -31 -63 -12 0 -21 10 -25 28 -3 15 -12 47 -19 72 l-14 45 0 -72 c-1
-58 -4 -73 -16 -73 -12 0 -15 17 -15 91 l0 90 27 -3 c24 -3 29 -10 44 -68 9
-36 18 -60 20 -55 1 6 3 15 4 20 1 6 8 32 16 58 12 42 16 48 39 45 24 -3 25
-6 30 -82 3 -43 2 -83 -1 -88 -4 -6 -17 -7 -30 -3 -20 6 -22 5 -11 -6 7 -7 28
-14 48 -15 27 -1 39 5 51 23 21 32 65 31 87 -2 18 -27 24 -29 45 -16 12 8 8
24 -19 93 -40 99 -47 110 -74 106 -16 -2 -29 -22 -53 -83 l-32 -80 -3 80 -3
80 -35 0 c-33 0 -35 -2 -49 -50 -8 -27 -15 -45 -17 -40 -2 6 -8 29 -14 53 -10
39 -13 42 -45 42 l-34 0 -3 -87 -3 -87 -34 87 c-29 75 -37 87 -57 87 -13 0
-28 -8 -33 -18z m80 -74 c19 -45 36 -86 37 -90 2 -4 -5 -8 -16 -8 -11 0 -22 9
-25 20 -4 16 -14 20 -45 20 -32 0 -42 -4 -47 -20 -3 -11 -15 -20 -25 -20 -16
0 -15 9 18 90 46 117 58 118 103 8z m392 -5 c22 -56 31 -89 24 -92 -6 -2 -17
6 -25 18 -20 29 -88 30 -97 1 -3 -11 -15 -20 -25 -20 -16 0 -15 9 18 90 47
118 59 118 105 3z"/>
<path d="M695 1890 c-9 -41 -8 -44 15 -44 11 0 20 3 21 7 2 18 -13 67 -21 67
-5 0 -11 -13 -15 -30z m21 -27 c-10 -10 -19 5 -10 18 6 11 8 11 12 0 2 -7 1
-15 -2 -18z"/>
<path d="M1084 1885 c-13 -41 -11 -44 20 -38 22 5 23 7 13 39 -13 43 -19 43
-33 -1z m22 -22 c-10 -10 -19 5 -10 18 6 11 8 11 12 0 2 -7 1 -15 -2 -18z"/>
<path d="M1267 1964 c-4 -4 -7 -49 -7 -101 l0 -93 75 0 c62 0 75 3 75 16 0 13
5 12 26 -5 15 -12 39 -21 54 -21 39 0 80 35 80 69 0 33 -22 54 -74 71 -33 11
-36 14 -22 22 13 7 23 5 36 -7 19 -18 51 -17 57 0 2 6 -6 21 -17 33 -29 31
-102 31 -124 0 -9 -12 -16 -30 -16 -39 0 -22 42 -56 81 -64 32 -7 34 -28 4
-34 -11 -2 -26 7 -36 20 -15 20 -21 22 -36 12 -10 -6 -17 -16 -15 -22 1 -7
-15 -11 -43 -11 l-44 0 -3 78 c-3 69 -5 77 -23 80 -12 2 -24 0 -28 -4z m41
-87 l3 -77 44 0 c25 0 45 -4 45 -10 0 -6 -28 -10 -65 -10 l-65 0 0 83 c0 46 3
87 7 91 18 18 28 -7 31 -77z m236 61 c16 -26 2 -31 -32 -11 -25 14 -32 15 -46
4 -21 -18 -6 -36 36 -45 42 -8 58 -23 58 -56 0 -36 -24 -55 -71 -55 -44 0 -75
24 -65 51 6 16 8 15 27 -4 21 -23 45 -28 68 -13 23 15 6 36 -38 50 -84 25 -74
105 12 99 24 -2 44 -10 51 -20z"/>
<path d="M150 1890 c6 -11 13 -20 16 -20 2 0 0 9 -6 20 -6 11 -13 20 -16 20
-2 0 0 -9 6 -20z"/>
<path d="M180 1866 c0 -2 7 -7 16 -10 8 -3 12 -2 9 4 -6 10 -25 14 -25 6z"/>
<path d="M355 1860 c-3 -6 1 -7 9 -4 18 7 21 14 7 14 -6 0 -13 -4 -16 -10z"/>
<path d="M231 1839 c17 -11 39 -12 39 -1 0 4 -12 8 -27 9 -19 1 -22 -1 -12 -8z"/>
<path d="M290 1840 c0 -5 5 -10 11 -10 5 0 7 5 4 10 -3 6 -8 10 -11 10 -2 0
-4 -4 -4 -10z"/>
<path d="M261 1804 c0 -11 3 -14 6 -6 3 7 2 16 -1 19 -3 4 -6 -2 -5 -13z"/>
<path d="M843 1652 l-743 -2 0 -503 c0 -310 4 -519 11 -547 15 -64 63 -158
112 -217 88 -107 202 -181 358 -234 83 -28 111 -33 231 -37 172 -6 284 17 416
84 151 75 248 168 313 296 56 112 59 137 59 670 0 268 -3 488 -7 490 -5 2
-342 2 -750 0z m742 -504 c-3 -284 -11 -514 -17 -543 -19 -88 -75 -183 -159
-267 -64 -64 -94 -85 -181 -126 -148 -72 -214 -87 -383 -86 -164 1 -245 19
-377 83 -155 76 -269 193 -325 336 l-28 70 -3 513 -3 512 741 0 742 0 -7 -492z"/>
<path d="M175 1590 c-3 -6 1 -7 9 -4 18 7 21 14 7 14 -6 0 -13 -4 -16 -10z"/>
<path d="M180 1560 c0 -5 5 -10 10 -10 6 0 10 5 10 10 0 6 -4 10 -10 10 -5 0
-10 -4 -10 -10z"/>
<path d="M360 1560 c0 -5 5 -10 10 -10 6 0 10 5 10 10 0 6 -4 10 -10 10 -5 0
-10 -4 -10 -10z"/>
<path d="M746 1360 c-97 -168 -130 -210 -150 -190 -16 16 -53 12 -96 -10 -44
-23 -44 -23 -30 -51 9 -15 7 -21 -5 -25 -8 -3 -15 -13 -15 -22 0 -14 4 -13 21
5 17 17 19 24 10 41 -9 17 -7 23 11 36 28 20 44 20 52 1 9 -24 38 -16 91 26
178 141 203 155 294 166 47 5 64 13 102 47 51 45 109 82 109 69 0 -4 -18 -30
-40 -58 -21 -27 -38 -50 -37 -52 2 -1 20 2 42 7 52 12 105 12 105 1 0 -9 -23
-29 -66 -59 -11 -7 -4 -5 14 4 38 17 52 13 32 -11 -19 -23 -58 -42 -147 -70
-71 -22 -89 -34 -188 -120 -71 -62 -127 -102 -160 -115 -27 -10 -42 -19 -33
-19 9 -1 28 4 42 11 25 11 31 6 123 -91 93 -97 99 -101 128 -93 28 7 33 17 80
155 27 81 52 147 55 147 3 0 22 -30 42 -66 l37 -65 -90 -86 c-61 -59 -86 -90
-79 -97 5 -5 10 -19 10 -31 0 -19 22 -28 182 -81 l183 -59 23 -43 23 -42 -113
0 -113 0 -95 95 c-65 66 -100 94 -112 91 -21 -5 -22 -2 -6 24 10 16 10 22 -2
34 -21 21 -42 5 -45 -33 -2 -26 0 -29 11 -20 8 7 14 7 14 1 0 -5 -7 -16 -16
-23 -9 -7 -20 -23 -25 -36 -5 -15 -14 -21 -24 -17 -10 4 -18 -3 -25 -20 -8
-22 -14 -25 -35 -20 -21 5 -27 2 -32 -14 -6 -23 -41 -40 -52 -26 -3 5 -18 10
-33 12 -19 2 -28 -2 -33 -17 -11 -37 -62 -26 -56 12 1 4 -11 12 -26 18 -23 9
-30 7 -43 -12 -14 -18 -20 -20 -38 -10 -17 9 -20 16 -12 35 7 19 4 28 -10 41
-18 16 -21 16 -43 2 -22 -14 -27 -14 -46 0 l-22 15 21 23 c19 20 20 26 8 44
-10 17 -19 20 -44 15 -26 -5 -32 -2 -37 16 -6 22 25 64 38 52 4 -4 5 6 3 23
-2 22 -9 31 -28 35 -20 5 -25 12 -25 35 0 23 5 31 23 33 12 2 22 8 22 13 0 13
-42 1 -53 -15 -15 -22 -3 -71 18 -74 36 -7 40 -21 10 -46 -22 -19 -26 -29 -21
-51 4 -15 16 -29 26 -32 11 -3 20 -7 20 -8 0 -2 -27 -48 -59 -103 -33 -55 -57
-103 -54 -106 11 -11 1183 -7 1183 4 0 5 -22 47 -49 92 -27 46 -117 200 -199
343 l-150 259 56 18 c66 21 105 48 107 74 1 11 7 29 14 42 16 30 -2 37 -75 29
-61 -6 -61 -11 -6 57 30 37 16 54 -27 32 -17 -9 -56 -37 -86 -62 -31 -24 -59
-42 -64 -40 -5 3 -30 44 -57 91 -27 47 -51 85 -54 85 -3 0 -49 -77 -104 -170z
m-163 -205 c1 -5 -6 -11 -15 -13 -11 -2 -18 3 -18 13 0 17 30 18 33 0z m395
-407 c-6 -18 -28 -21 -28 -4 0 9 7 16 16 16 9 0 14 -5 12 -12z m-566 -60 c-7
-7 -12 -8 -12 -2 0 14 12 26 19 19 2 -3 -1 -11 -7 -17z m498 -70 c0 -2 -6 -23
-14 -48 l-13 -45 -72 -3 c-49 -2 -71 1 -66 8 3 5 15 10 26 10 10 0 24 9 31 20
7 11 23 20 35 20 13 0 28 9 35 20 10 16 39 29 38 18z"/>
<path d="M1005 1318 c-6 -13 -26 -28 -45 -35 -27 -9 -30 -12 -12 -12 13 -1 38
14 59 34 21 20 30 35 22 35 -8 0 -19 -10 -24 -22z"/>
<path d="M878 1263 c7 -3 16 -2 19 1 4 3 -2 6 -13 5 -11 0 -14 -3 -6 -6z"/>
<path d="M838 1253 c7 -3 16 -2 19 1 4 3 -2 6 -13 5 -11 0 -14 -3 -6 -6z"/>
<path d="M740 1118 c-14 -5 -39 -7 -57 -4 -24 3 -31 1 -27 -9 4 -8 -6 -20 -24
-29 -38 -20 -90 -79 -113 -130 -25 -55 -25 -145 0 -194 59 -114 203 -155 327
-92 71 36 72 36 48 8 l-19 -23 22 19 c13 10 20 22 18 27 -3 4 -2 10 3 13 5 3
7 18 4 34 -4 29 -9 31 -208 96 l-203 67 10 25 c13 37 57 95 91 123 28 22 30
23 48 6 20 -18 20 -18 -5 -51 -47 -62 -25 -44 46 37 39 44 70 82 68 83 -2 2
-15 -1 -29 -6z"/>
<path d="M380 1058 c-24 -40 -25 -57 -4 -65 11 -4 14 -14 10 -37 l-6 -31 14
30 c13 27 13 31 -5 39 -24 11 -24 24 0 55 12 16 24 22 35 18 9 -4 16 -2 16 2
0 8 -23 21 -36 21 -2 0 -13 -15 -24 -32z"/>
<path d="M553 1059 c-32 -20 -93 -102 -93 -123 1 -6 10 5 20 25 11 20 40 55
66 78 52 46 54 50 7 20z"/>
<path d="M451 894 c0 -11 3 -14 6 -6 3 7 2 16 -1 19 -3 4 -6 -2 -5 -13z"/>
<path d="M451 804 c0 -11 3 -14 6 -6 3 7 2 16 -1 19 -3 4 -6 -2 -5 -13z"/>
<path d="M460 767 c-2 -40 135 -175 156 -154 3 2 -8 10 -24 16 -34 14 -93 73
-115 116 -9 17 -16 26 -17 22z"/>
<path d="M638 603 c7 -3 16 -2 19 1 4 3 -2 6 -13 5 -11 0 -14 -3 -6 -6z"/>
<path d="M768 603 c7 -3 16 -2 19 1 4 3 -2 6 -13 5 -11 0 -14 -3 -6 -6z"/>
<path d="M11 604 c0 -11 3 -14 6 -6 3 7 2 16 -1 19 -3 4 -6 -2 -5 -13z"/>
<path d="M26 550 c3 -14 11 -32 16 -40 6 -10 7 -7 2 10 -3 14 -11 32 -16 40
-6 10 -7 7 -2 -10z"/>
<path d="M1617 445 c-49 -94 -137 -190 -235 -256 -85 -56 -100 -68 -62 -49 58
29 152 104 208 165 52 57 141 200 130 210 -2 2 -20 -29 -41 -70z"/>
<path d="M64 457 c20 -62 184 -246 248 -277 15 -7 13 -4 -7 11 -59 44 -182
175 -214 229 -18 30 -30 47 -27 37z"/>
<path d="M340 167 c0 -7 72 -48 76 -44 2 2 -14 14 -36 26 -22 12 -40 20 -40
18z"/>
<path d="M440 110 c8 -5 20 -10 25 -10 6 0 3 5 -5 10 -8 5 -19 10 -25 10 -5 0
-3 -5 5 -10z"/>
<path d="M1220 100 c-8 -5 -10 -10 -5 -10 6 0 17 5 25 10 8 5 11 10 5 10 -5 0
-17 -5 -25 -10z"/>
<path d="M490 90 c8 -5 20 -10 25 -10 6 0 3 5 -5 10 -8 5 -19 10 -25 10 -5 0
-3 -5 5 -10z"/>
<path d="M1140 70 c-8 -5 -10 -10 -5 -10 6 0 17 5 25 10 8 5 11 10 5 10 -5 0
-17 -5 -25 -10z"/>
<path d="M648 43 c7 -3 16 -2 19 1 4 3 -2 6 -13 5 -11 0 -14 -3 -6 -6z"/>
<path d="M1048 43 c7 -3 16 -2 19 1 4 3 -2 6 -13 5 -11 0 -14 -3 -6 -6z"/>
<path d="M708 33 c6 -2 18 -2 25 0 6 3 1 5 -13 5 -14 0 -19 -2 -12 -5z"/>
<path d="M973 33 c9 -2 23 -2 30 0 6 3 -1 5 -18 5 -16 0 -22 -2 -12 -5z"/>
<path d="M848 23 c7 -3 16 -2 19 1 4 3 -2 6 -13 5 -11 0 -14 -3 -6 -6z"/>
</g>
</svg>
