<svg width="26" height="26" viewBox="0 0 26 26" fill="none" xmlns="http://www.w3.org/2000/svg">
<mask id="mask0_394_1869" style="mask-type:alpha" maskUnits="userSpaceOnUse" x="0" y="0" width="26" height="26">
<circle cx="13" cy="13" r="13" fill="#C4C4C4"/>
</mask>
<g mask="url(#mask0_394_1869)">
<path fill-rule="evenodd" clip-rule="evenodd" d="M13 26C20.1797 26 26 20.1797 26 13C26 5.8203 20.1797 0 13 0C5.8203 0 0 5.8203 0 13C0 20.1797 5.8203 26 13 26ZM11.0643 20V14.0783H9V11.7605H11.0643V10.0548C11.0643 8.07666 12.3177 7 14.1492 7C15.0264 7 15.7803 7.06299 16 7.09112V9.15857H14.7371C13.7406 9.15857 13.5477 9.61475 13.5477 10.2843V11.7605H15.9302L15.6197 14.0783H13.5477V20H11.0643Z" fill="white"/>
</g>
</svg>
