<svg width="26" height="26" viewBox="0 0 26 26" fill="none" xmlns="http://www.w3.org/2000/svg">
<path fill-rule="evenodd" clip-rule="evenodd" d="M13 26C20.1797 26 26 20.1797 26 13C26 5.8203 20.1797 0 13 0C5.8203 0 0 5.8203 0 13C0 20.1797 5.8203 26 13 26ZM20.9593 9.70406C20.9218 8.85391 20.7843 8.26945 20.5874 7.763C20.3842 7.22542 20.0715 6.74412 19.662 6.34402C19.2618 5.93769 18.7772 5.62195 18.2458 5.42196C17.7363 5.22502 17.1548 5.08754 16.3044 5.05006C15.4478 5.0094 15.1758 5 13.0031 5C10.8304 5 10.5584 5.0094 9.70496 5.04688C8.85465 5.08437 8.27007 5.22197 7.76365 5.41878C7.22584 5.62195 6.74445 5.93451 6.34427 6.34402C5.93786 6.74412 5.62219 7.22859 5.42204 7.75995C5.22506 8.26945 5.08756 8.85074 5.05007 9.70088C5.0094 10.5574 5 10.8293 5 13.0016C5 15.1739 5.0094 15.4458 5.04689 16.2991C5.08438 17.1493 5.22201 17.7337 5.41899 18.2402C5.62219 18.7778 5.93786 19.2591 6.34427 19.6592C6.74445 20.0655 7.22902 20.3812 7.76047 20.5812C8.27007 20.7782 8.85147 20.9156 9.7019 20.9531C10.5553 20.9907 10.8273 21 13.0001 21C15.1728 21 15.4447 20.9907 16.2982 20.9531C17.1485 20.9156 17.7331 20.7782 18.2395 20.5812C19.315 20.1655 20.1653 19.3153 20.5811 18.2402C20.778 17.7307 20.9156 17.1493 20.9531 16.2991C20.9906 15.4458 21 15.1739 21 13.0016C21 10.8293 20.9968 10.5574 20.9593 9.70406ZM19.5182 16.2366C19.4838 17.018 19.3525 17.44 19.2431 17.7213C18.9742 18.4183 18.4209 18.9715 17.7237 19.2404C17.4423 19.3498 17.0173 19.481 16.2387 19.5153C15.3947 19.5529 15.1415 19.5622 13.0063 19.5622C10.8711 19.5622 10.6147 19.5529 9.77371 19.5153C8.99215 19.481 8.57012 19.3498 8.28876 19.2404C7.94182 19.1122 7.62602 18.909 7.3697 18.6433C7.10397 18.3839 6.90076 18.0713 6.77254 17.7244C6.66312 17.4431 6.53185 17.018 6.49753 16.2398C6.45992 15.3959 6.45064 15.1426 6.45064 13.0078C6.45064 10.873 6.45992 10.6167 6.49753 9.77597C6.53185 8.99457 6.66312 8.57261 6.77254 8.2913C6.90076 7.94431 7.10397 7.6287 7.37287 7.3723C7.63225 7.10662 7.94487 6.90345 8.29193 6.77538C8.57329 6.66598 8.9985 6.53473 9.77688 6.5003C10.621 6.46281 10.8742 6.45341 13.0093 6.45341C15.1477 6.45341 15.4009 6.46281 16.2419 6.5003C17.0235 6.53473 17.4455 6.66598 17.7269 6.77538C18.0738 6.90345 18.3896 7.10662 18.6459 7.3723C18.9117 7.63175 19.1149 7.94431 19.2431 8.2913C19.3525 8.57261 19.4838 8.99762 19.5182 9.77597C19.5557 10.6199 19.5651 10.873 19.5651 13.0078C19.5651 15.1426 19.5557 15.3927 19.5182 16.2366ZM13.0031 8.89126C10.7335 8.89126 8.89213 10.7322 8.89213 13.0015C8.89213 15.2707 10.7335 17.1116 13.0031 17.1116C15.2728 17.1116 17.1141 15.2707 17.1141 13.0015C17.1141 10.7322 15.2728 8.89126 13.0031 8.89126ZM13.0031 15.6676C11.5307 15.6676 10.3364 14.4737 10.3364 13.0015C10.3364 11.5292 11.5307 10.3353 13.0031 10.3353C14.4756 10.3353 15.6698 11.5292 15.6698 13.0015C15.6698 14.4737 14.4756 15.6676 13.0031 15.6676ZM17.2767 9.68847C17.8068 9.68847 18.2365 9.25881 18.2365 8.72892C18.2365 8.19891 17.8068 7.76938 17.2767 7.76938C16.7467 7.76938 16.317 8.19891 16.317 8.72892C16.317 9.25881 16.7467 9.68847 17.2767 9.68847Z" fill="white"/>
</svg>
