<svg width="26" height="26" viewBox="0 0 26 26" fill="none" xmlns="http://www.w3.org/2000/svg">
<path fill-rule="evenodd" clip-rule="evenodd" d="M13 26C20.1797 26 26 20.1797 26 13C26 5.8203 20.1797 0 13 0C5.8203 0 0 5.8203 0 13C0 20.1797 5.8203 26 13 26ZM7.82538 6C6.72165 6 6 6.69805 6 7.61554C6 8.51277 6.70015 9.23074 7.78303 9.23074H7.80398C8.9293 9.23074 9.62963 8.51277 9.62963 7.61554C9.60859 6.69805 8.9293 6 7.82538 6ZM6.51854 10.3078H9.11113V20H6.51854V10.3078ZM13.7244 11.9034C13.7244 11.9034 14.8304 10.3078 16.4799 10.3078C18.4915 10.3078 20 11.6613 20 14.5701V20H16.9426V14.9339C16.9426 13.6608 16.5001 12.7924 15.3937 12.7924C14.549 12.7924 14.046 13.378 13.8249 13.9434C13.7441 14.1458 13.7242 14.4285 13.7242 14.7116V20H10.6667V10.5301H13.7244V11.9034Z" fill="white"/>
</svg>
