<svg width="38" height="600" viewBox="0 0 38 600" fill="none" xmlns="http://www.w3.org/2000/svg">
<path opacity="0.8" d="M13.8111 566.24H14.8111V565.137L13.7137 565.245L13.8111 566.24ZM13.8111 575.118L13.9399 576.11L14.8111 575.996V575.118H13.8111ZM11.343 575.846L11.7903 576.74H11.7903L11.343 575.846ZM9.46094 577.302L8.70378 576.649V576.649L9.46094 577.302ZM8.27131 579.45L9.2158 579.779L9.21864 579.771L9.22134 579.762L8.27131 579.45ZM9.14133 586.73L8.31283 587.29L8.31527 587.294L9.14133 586.73ZM12.8878 589.66L12.5003 590.582L12.506 590.584L12.8878 589.66ZM24.8906 589.642L25.2781 590.564L25.2862 590.56L24.8906 589.642ZM28.5661 586.712L29.4006 587.263L29.4065 587.254L28.5661 586.712ZM29.4183 579.575L28.4628 579.87L28.4641 579.874L29.4183 579.575ZM28.3352 577.462L29.1221 576.845L29.1205 576.842L28.3352 577.462ZM26.5774 575.952L26.0781 576.819L26.0829 576.822L26.5774 575.952ZM24.2159 575.118L23.2159 575.112L23.2109 575.957L24.0429 576.103L24.2159 575.118ZM24.2692 566.24L24.3643 565.245L23.2758 565.141L23.2692 566.234L24.2692 566.24ZM29.0277 567.643L28.5805 568.537L28.5859 568.54L29.0277 567.643ZM33.3068 570.821L34.0328 570.133L34.0296 570.13L33.3068 570.821ZM36.3608 575.757L35.4292 576.121L35.43 576.123L36.3608 575.757ZM35.331 591.24L36.2029 591.73L36.2055 591.725L35.331 591.24ZM28.9744 597.384L28.499 596.504L28.9744 597.384ZM8.64417 597.348L8.16297 598.225L8.16297 598.225L8.64417 597.348ZM1.0625 576.29L2.01239 576.602L2.01415 576.597L1.0625 576.29ZM3.72585 571.354L4.49723 571.99L4.50038 571.986L3.72585 571.354ZM12.8111 566.24V575.118H14.8111V566.24H12.8111ZM13.6823 574.126C12.6732 574.257 11.7409 574.529 10.8958 574.951L11.7903 576.74C12.4129 576.429 13.126 576.215 13.9399 576.11L13.6823 574.126ZM10.8958 574.951C10.0472 575.376 9.3135 575.942 8.70378 576.649L10.2181 577.955C10.65 577.454 11.1711 577.05 11.7903 576.74L10.8958 574.951ZM8.70378 576.649C8.08901 577.361 7.63081 578.196 7.32127 579.138L9.22134 579.762C9.45631 579.047 9.79119 578.45 10.2181 577.955L8.70378 576.649ZM7.32681 579.122C7.00093 580.059 6.84517 581.077 6.84517 582.167H8.84517C8.84517 581.268 8.9735 580.475 9.2158 579.779L7.32681 579.122ZM6.84517 582.167C6.84517 584.101 7.32153 585.824 8.31284 587.29L9.96983 586.17C9.23292 585.08 8.84517 583.76 8.84517 582.167H6.84517ZM8.31527 587.294C9.3041 588.743 10.7174 589.832 12.5003 590.582L13.2752 588.738C11.7911 588.114 10.7068 587.25 9.9674 586.167L8.31527 587.294ZM12.506 590.584C14.292 591.322 16.406 591.672 18.8182 591.672V589.672C16.5902 589.672 14.7506 589.347 13.2695 588.736L12.506 590.584ZM18.8182 591.672C21.3207 591.672 23.4861 591.317 25.2781 590.564L24.5032 588.72C23.0281 589.34 21.1452 589.672 18.8182 589.672V591.672ZM25.2862 590.56C27.055 589.799 28.4469 588.707 29.4005 587.263L27.7316 586.161C27.028 587.227 25.9696 588.089 24.4951 588.724L25.2862 590.56ZM29.4065 587.254C30.342 585.803 30.7912 584.112 30.7912 582.22H28.7912C28.7912 583.785 28.4236 585.088 27.7256 586.17L29.4065 587.254ZM30.7912 582.22C30.7912 581.165 30.6561 580.18 30.3726 579.275L28.4641 579.874C28.6777 580.555 28.7912 581.334 28.7912 582.22H30.7912ZM30.3738 579.28C30.0927 578.369 29.678 577.553 29.1221 576.845L27.5484 578.079C27.9394 578.577 28.2468 579.17 28.4628 579.87L30.3738 579.28ZM29.1205 576.842C28.5547 576.125 27.8697 575.537 27.0719 575.083L26.0829 576.822C26.6582 577.149 27.1451 577.567 27.55 578.081L29.1205 576.842ZM27.0767 575.086C26.2674 574.62 25.3679 574.305 24.3889 574.133L24.0429 576.103C24.8158 576.239 25.4907 576.48 26.0781 576.819L27.0767 575.086ZM25.2159 575.124L25.2692 566.246L23.2692 566.234L23.2159 575.112L25.2159 575.124ZM24.174 567.236C25.6518 567.377 27.1192 567.807 28.5805 568.537L29.4749 566.748C27.8112 565.916 26.1063 565.411 24.3643 565.245L24.174 567.236ZM28.5859 568.54C30.0361 569.254 31.3688 570.241 32.584 571.512L34.0296 570.13C32.6643 568.702 31.1443 567.57 29.4695 566.746L28.5859 568.54ZM32.5809 571.509C33.7603 572.754 34.7129 574.285 35.4292 576.121L37.2924 575.394C36.4935 573.346 35.4101 571.587 34.0328 570.133L32.5809 571.509ZM35.43 576.123C36.1335 577.914 36.4972 580 36.4972 582.398H38.4972C38.4972 579.8 38.1032 577.459 37.2916 575.392L35.43 576.123ZM36.4972 582.398C36.4972 585.537 35.8099 588.314 34.4564 590.755L36.2055 591.725C37.7403 588.957 38.4972 585.84 38.4972 582.398H36.4972ZM34.4591 590.75C33.1017 593.167 31.1254 595.084 28.499 596.504L29.4499 598.263C32.3869 596.676 34.6483 594.498 36.2029 591.73L34.4591 590.75ZM28.499 596.504C25.8966 597.91 22.6838 598.638 18.8182 598.638V600.638C22.9308 600.638 26.4888 599.864 29.4499 598.263L28.499 596.504ZM18.8182 598.638C14.9424 598.638 11.726 597.899 9.12538 596.471L8.16297 598.225C11.1258 599.851 14.6921 600.638 18.8182 600.638V598.638ZM9.12538 596.471C6.49775 595.029 4.52645 593.094 3.17993 590.666L1.43087 591.636C2.9726 594.416 5.22716 596.613 8.16297 598.225L9.12538 596.471ZM3.17993 590.666C1.82501 588.223 1.1392 585.474 1.1392 582.398H-0.860797C-0.860797 585.784 -0.102471 588.871 1.43087 591.636L3.17993 590.666ZM1.1392 582.398C1.1392 580.29 1.43372 578.361 2.01238 576.602L0.112621 575.977C-0.539783 577.959 -0.860797 580.102 -0.860797 582.398H1.1392ZM2.01415 576.597C2.5817 574.839 3.41096 573.307 4.49722 571.99L2.95448 570.717C1.69699 572.242 0.750682 574 0.110848 575.983L2.01415 576.597ZM4.50038 571.986C5.57158 570.675 6.89094 569.605 8.46944 568.777L7.5405 567.006C5.73359 567.953 4.2002 569.192 2.95132 570.721L4.50038 571.986ZM8.46944 568.777C10.0327 567.957 11.8403 567.438 13.9084 567.235L13.7137 565.245C11.4258 565.469 9.3627 566.05 7.5405 567.006L8.46944 568.777ZM37 557.211V558.211H38V557.211H37ZM0.636362 557.211H-0.363638V558.211H0.636362V557.211ZM0.636362 531.856V530.856H-0.363638V531.856H0.636362ZM7.77415 531.856H8.77415V530.856H7.77415V531.856ZM7.77415 548.422H6.77415V549.422H7.77415V548.422ZM15.2315 548.422V549.422H16.2315V548.422H15.2315ZM15.2315 533.152V532.152H14.2315V533.152H15.2315ZM22.3871 533.152H23.3871V532.152H22.3871V533.152ZM22.3871 548.422H21.3871V549.422H22.3871V548.422ZM29.8622 548.422V549.422H30.8622V548.422H29.8622ZM29.8622 531.856V530.856H28.8622V531.856H29.8622ZM37 531.856H38V530.856H37V531.856ZM37 556.211H0.636362V558.211H37V556.211ZM1.63636 557.211V531.856H-0.363638V557.211H1.63636ZM0.636362 532.856H7.77415V530.856H0.636362V532.856ZM6.77415 531.856V548.422H8.77415V531.856H6.77415ZM7.77415 549.422H15.2315V547.422H7.77415V549.422ZM16.2315 548.422V533.152H14.2315V548.422H16.2315ZM15.2315 534.152H22.3871V532.152H15.2315V534.152ZM21.3871 533.152V548.422H23.3871V533.152H21.3871ZM22.3871 549.422H29.8622V547.422H22.3871V549.422ZM30.8622 548.422V531.856H28.8622V548.422H30.8622ZM29.8622 532.856H37V530.856H29.8622V532.856ZM36 531.856V557.211H38V531.856H36ZM37 522.351V523.351H38V522.351H37ZM0.636362 522.351H-0.363638V523.351H0.636362V522.351ZM0.636362 497.529V496.529H-0.363638V497.529H0.636362ZM7.77415 497.529H8.77415V496.529H7.77415V497.529ZM7.77415 513.562H6.77415V514.562H7.77415V513.562ZM15.2315 513.562V514.562H16.2315V513.562H15.2315ZM15.2315 499.109V498.109H14.2315V499.109H15.2315ZM22.3871 499.109H23.3871V498.109H22.3871V499.109ZM22.3871 513.562H21.3871V514.562H22.3871V513.562ZM37 513.562H38V512.562H37V513.562ZM37 521.351H0.636362V523.351H37V521.351ZM1.63636 522.351V497.529H-0.363638V522.351H1.63636ZM0.636362 498.529H7.77415V496.529H0.636362V498.529ZM6.77415 497.529V513.562H8.77415V497.529H6.77415ZM7.77415 514.562H15.2315V512.562H7.77415V514.562ZM16.2315 513.562V499.109H14.2315V513.562H16.2315ZM15.2315 500.109H22.3871V498.109H15.2315V500.109ZM21.3871 499.109V513.562H23.3871V499.109H21.3871ZM22.3871 514.562H37V512.562H22.3871V514.562ZM36 513.562V522.351H38V513.562H36ZM37 485.779H38V485.044L37.299 484.824L37 485.779ZM37 495.225L36.6803 496.172L38 496.617V495.225H37ZM0.636362 482.955H-0.363638V483.673L0.316667 483.903L0.636362 482.955ZM0.636362 471.254L0.316667 470.307L-0.363638 470.536V471.254H0.636362ZM37 458.985H38V457.592L36.6803 458.038L37 458.985ZM37 468.431L37.2996 469.385L38 469.165V468.431H37ZM9.79829 476.972L9.49874 476.018L8.79829 476.238V476.972H9.79829ZM9.79829 477.256H8.79829V477.99L9.49931 478.21L9.79829 477.256ZM22.6889 487.039H21.6889V488.039H22.6889V487.039ZM22.6889 467.295V466.295H21.6889V467.295H22.6889ZM29.3651 467.295H30.3651V466.295H29.3651V467.295ZM29.3651 487.039V488.039H30.3651V487.039H29.3651ZM36 485.779V495.225H38V485.779H36ZM37.3197 494.277L0.956059 482.008L0.316667 483.903L36.6803 496.172L37.3197 494.277ZM1.63636 482.955V471.254H-0.363638V482.955H1.63636ZM0.956059 472.202L37.3197 459.933L36.6803 458.038L0.316667 470.307L0.956059 472.202ZM36 458.985V468.431H38V458.985H36ZM36.7004 467.477L9.49874 476.018L10.0978 477.926L37.2996 469.385L36.7004 467.477ZM8.79829 476.972V477.256H10.7983V476.972H8.79829ZM9.49931 478.21L36.701 486.733L37.299 484.824L10.0973 476.302L9.49931 478.21ZM23.6889 487.039V467.295H21.6889V487.039H23.6889ZM22.6889 468.295H29.3651V466.295H22.6889V468.295ZM28.3651 467.295V487.039H30.3651V467.295H28.3651ZM29.3651 486.039H22.6889V488.039H29.3651V486.039ZM11.5383 432.538L11.6289 433.534L12.5383 433.451V432.538H11.5383ZM8.50213 434.118L9.28503 434.74L9.29364 434.729L8.50213 434.118ZM7.84517 440.918L6.91371 441.282V441.282L7.84517 440.918ZM9.07031 442.623L9.66736 441.821L9.65848 441.814L9.07031 442.623ZM10.8281 443.209L10.8716 442.21L10.8588 442.209L10.846 442.209L10.8281 443.209ZM12.2663 442.889L12.7625 443.757L12.7717 443.752L12.7808 443.747L12.2663 442.889ZM13.3672 441.824L14.1894 442.393L14.1977 442.381L14.2056 442.369L13.3672 441.824ZM14.1839 440.119L13.2422 439.783L14.1839 440.119ZM14.8054 437.882L13.8302 437.66L13.8276 437.673L14.8054 437.882ZM15.5156 434.757L16.4908 434.979L16.4929 434.969L15.5156 434.757ZM17.0781 429.999L17.9817 430.427L17.9831 430.424L17.0781 429.999ZM19.4041 426.518L20.1248 427.212L20.1291 427.207L19.4041 426.518ZM22.5114 424.37L22.894 425.294L22.5114 424.37ZM26.4531 423.624L26.4583 422.624L26.445 422.624L26.4531 423.624ZM32.3658 425.364L31.7935 426.184L32.3658 425.364ZM36.1477 430.318L35.2214 430.695L35.2221 430.697L36.1477 430.318ZM36.0945 446.032L35.167 445.658L36.0945 446.032ZM31.9396 451.305L32.4992 452.134L31.9396 451.305ZM24.8906 453.241H23.8906V454.253L24.9031 454.241L24.8906 453.241ZM24.8906 444.825L24.8301 443.826L23.8906 443.883V444.825H24.8906ZM27.8203 443.884L28.4004 444.698L27.8203 443.884ZM29.5959 441.593L30.5196 441.976L30.5213 441.972L29.5959 441.593ZM29.7202 435.165L28.7855 435.521L28.7872 435.525L29.7202 435.165ZM28.3885 433.23L27.7678 434.014L28.3885 433.23ZM26.4354 432.538L26.4515 431.538L26.4348 431.538L26.4181 431.538L26.4354 432.538ZM24.6776 433.177L25.3178 433.945L25.3268 433.937L24.6776 433.177ZM23.3991 435.094L24.3176 435.49L24.3209 435.482L24.3241 435.475L23.3991 435.094ZM22.3871 438.362L23.3608 438.589L23.3612 438.588L22.3871 438.362ZM21.4993 442.161L20.5255 441.934L20.5246 441.938L21.4993 442.161ZM18.0014 449.601L18.7464 450.268L18.7488 450.265L18.0014 449.601ZM11.4318 452.3L11.4361 451.3L11.4266 451.3L11.4318 452.3ZM5.51917 450.489L4.93472 451.3L5.51917 450.489ZM1.55966 445.428L2.47512 445.026L1.55966 445.428ZM1.57741 430.727L2.48494 431.147L2.48778 431.14L1.57741 430.727ZM5.57244 425.879L5.01642 425.048H5.01642L5.57244 425.879ZM11.5383 424.121H12.5383V423.111L11.5279 423.122L11.5383 424.121ZM11.4478 431.542C9.90153 431.682 8.6218 432.327 7.71062 433.507L9.29364 434.729C9.82659 434.039 10.571 433.63 11.6289 433.534L11.4478 431.542ZM7.71931 433.496C6.79329 434.661 6.40128 436.235 6.40128 438.077H8.40128C8.40128 436.487 8.74317 435.422 9.28495 434.74L7.71931 433.496ZM6.40128 438.077C6.40128 439.292 6.55836 440.372 6.91371 441.282L8.77663 440.554C8.54012 439.949 8.40128 439.135 8.40128 438.077H6.40128ZM6.91371 441.282C7.26101 442.171 7.77073 442.914 8.48214 443.432L9.65848 441.814C9.32823 441.574 9.02118 441.181 8.77663 440.554L6.91371 441.282ZM8.4733 443.425C9.1578 443.934 9.94843 444.193 10.8103 444.209L10.846 442.209C10.3821 442.201 10.0008 442.069 9.66732 441.821L8.4733 443.425ZM10.7847 444.208C11.4903 444.239 12.1619 444.101 12.7625 443.757L11.7702 442.021C11.5421 442.151 11.2549 442.226 10.8716 442.21L10.7847 444.208ZM12.7808 443.747C13.3352 443.414 13.8019 442.953 14.1894 442.393L12.545 441.255C12.2933 441.618 12.026 441.867 11.7518 442.032L12.7808 443.747ZM14.2056 442.369C14.5647 441.816 14.8689 441.175 15.1257 440.456L13.2422 439.783C13.0255 440.39 12.7852 440.884 12.5287 441.279L14.2056 442.369ZM15.1257 440.456C15.3798 439.744 15.5982 438.955 15.7832 438.092L13.8276 437.673C13.6575 438.467 13.4615 439.169 13.2422 439.783L15.1257 440.456ZM15.7805 438.104L16.4908 434.979L14.5405 434.535L13.8303 437.66L15.7805 438.104ZM16.4929 434.969C16.8706 433.23 17.3694 431.718 17.9817 430.427L16.1745 429.57C15.4847 431.025 14.9419 432.686 14.5384 434.545L16.4929 434.969ZM17.9831 430.424C18.5959 429.121 19.313 428.056 20.1248 427.212L18.6835 425.825C17.696 426.852 16.8625 428.107 16.1731 429.573L17.9831 430.424ZM20.1291 427.207C20.9353 426.359 21.8553 425.724 22.894 425.294L22.1287 423.446C20.8236 423.987 19.6722 424.784 18.6791 425.83L20.1291 427.207ZM22.894 425.294C23.9308 424.865 25.115 424.635 26.4613 424.624L26.445 422.624C24.8793 422.637 23.4356 422.905 22.1287 423.446L22.894 425.294ZM26.448 424.624C28.5718 424.635 30.3378 425.169 31.7935 426.184L32.938 424.544C31.103 423.264 28.9273 422.637 26.4583 422.624L26.448 424.624ZM31.7935 426.184C33.2565 427.205 34.4063 428.69 35.2214 430.695L37.0741 429.942C36.1372 427.637 34.7657 425.82 32.938 424.544L31.7935 426.184ZM35.2221 430.697C36.0363 432.688 36.4616 435.139 36.4616 438.077H38.4616C38.4616 434.955 38.011 432.233 37.0734 429.94L35.2221 430.697ZM36.4616 438.077C36.4616 441.022 36.0203 443.541 35.167 445.658L37.0219 446.406C37.9916 444.001 38.4616 441.217 38.4616 438.077H36.4616ZM35.167 445.658C34.3233 447.751 33.0588 449.343 31.3801 450.477L32.4992 452.134C34.5373 450.758 36.0427 448.835 37.0219 446.406L35.167 445.658ZM31.3801 450.477C29.7216 451.596 27.5758 452.207 24.8781 452.241L24.9031 454.241C27.8873 454.203 30.4408 453.524 32.4992 452.134L31.3801 450.477ZM25.8906 453.241V444.825H23.8906V453.241H25.8906ZM24.9511 445.823C26.268 445.743 27.4356 445.385 28.4004 444.698L27.2402 443.069C26.6425 443.495 25.857 443.764 24.8301 443.826L24.9511 445.823ZM28.4004 444.698C29.3488 444.023 30.0524 443.103 30.5196 441.976L28.6721 441.21C28.3344 442.025 27.8543 442.632 27.2402 443.069L28.4004 444.698ZM30.5213 441.972C30.9824 440.846 31.1996 439.577 31.1996 438.184H29.1996C29.1996 439.371 29.0143 440.375 28.6705 441.214L30.5213 441.972ZM31.1996 438.184C31.1996 436.916 31.0291 435.78 30.6532 434.806L28.7872 435.525C29.0504 436.208 29.1996 437.085 29.1996 438.184H31.1996ZM30.6549 434.81C30.2865 433.841 29.7491 433.032 29.0092 432.446L27.7678 434.014C28.1642 434.328 28.5146 434.809 28.7855 435.521L30.6549 434.81ZM29.0092 432.446C28.2663 431.858 27.4021 431.553 26.4515 431.538L26.4192 433.538C26.9364 433.546 27.3743 433.703 27.7678 434.014L29.0092 432.446ZM26.4181 431.538C25.5185 431.553 24.7041 431.839 24.0283 432.416L25.3268 433.937C25.6217 433.686 25.9791 433.546 26.4526 433.537L26.4181 431.538ZM24.0374 432.409C23.372 432.963 22.8656 433.762 22.4742 434.714L24.3241 435.475C24.6429 434.699 24.9888 434.219 25.3177 433.945L24.0374 432.409ZM22.4807 434.699C22.0821 435.625 21.7286 436.776 21.413 438.135L23.3612 438.588C23.6611 437.296 23.9823 436.269 24.3176 435.49L22.4807 434.699ZM21.4133 438.134L20.5255 441.934L22.4731 442.389L23.3608 438.589L21.4133 438.134ZM20.5246 441.938C19.828 444.975 18.7213 447.286 17.254 448.936L18.7488 450.265C20.5013 448.294 21.7264 445.645 22.474 442.385L20.5246 441.938ZM17.2564 448.934C15.8522 450.502 13.951 451.311 11.4361 451.3L11.4275 453.3C14.4287 453.313 16.9073 452.322 18.7464 450.268L17.2564 448.934ZM11.4266 451.3C9.37159 451.311 7.611 450.763 6.10363 449.677L4.93472 451.3C6.81277 452.653 8.99394 453.313 11.4371 453.3L11.4266 451.3ZM6.10363 449.677C4.57364 448.575 3.35965 447.038 2.47512 445.026L0.644196 445.831C1.65361 448.127 3.07929 449.964 4.93472 451.3L6.10363 449.677ZM2.47512 445.026C1.59266 443.018 1.1392 440.703 1.1392 438.06H-0.860797C-0.860797 440.933 -0.367282 443.53 0.644197 445.831L2.47512 445.026ZM1.1392 438.06C1.1392 435.354 1.59958 433.059 2.48492 431.147L0.669909 430.307C-0.362372 432.537 -0.860797 435.131 -0.860797 438.06H1.1392ZM2.48778 431.14C3.36635 429.208 4.58312 427.744 6.12847 426.71L5.01642 425.048C3.129 426.311 1.68241 428.079 0.667047 430.313L2.48778 431.14ZM6.12847 426.71C7.66801 425.681 9.46312 425.143 11.5488 425.121L11.5279 423.122C9.0918 423.147 6.90964 423.782 5.01642 425.048L6.12847 426.71ZM10.5383 424.121V432.538H12.5383V424.121H10.5383ZM7.77415 416.375V417.375H8.77415V416.375H7.77415ZM0.636362 416.375H-0.363638V417.375H0.636362V416.375ZM0.636362 385.64V384.64H-0.363638V385.64H0.636362ZM7.77415 385.64H8.77415V384.64H7.77415V385.64ZM7.77415 396.666H6.77415V397.666H7.77415V396.666ZM37 396.666H38V395.666H37V396.666ZM37 405.331V406.331H38V405.331H37ZM7.77415 405.331V404.331H6.77415V405.331H7.77415ZM7.77415 415.375H0.636362V417.375H7.77415V415.375ZM1.63636 416.375V385.64H-0.363638V416.375H1.63636ZM0.636362 386.64H7.77415V384.64H0.636362V386.64ZM6.77415 385.64V396.666H8.77415V385.64H6.77415ZM7.77415 397.666H37V395.666H7.77415V397.666ZM36 396.666V405.331H38V396.666H36ZM37 404.331H7.77415V406.331H37V404.331ZM6.77415 405.331V416.375H8.77415V405.331H6.77415ZM37 354.74H38V354.005L37.299 353.785L37 354.74ZM37 364.186L36.6803 365.133L38 365.578V364.186H37ZM0.636362 351.916H-0.363638V352.634L0.316667 352.864L0.636362 351.916ZM0.636362 340.215L0.316667 339.268L-0.363638 339.497V340.215H0.636362ZM37 327.946H38V326.553L36.6803 326.999L37 327.946ZM37 337.392L37.2996 338.346L38 338.126V337.392H37ZM9.79829 345.933L9.49874 344.979L8.79829 345.199V345.933H9.79829ZM9.79829 346.217H8.79829V346.951L9.49931 347.171L9.79829 346.217ZM22.6889 356H21.6889V357H22.6889V356ZM22.6889 336.256V335.256H21.6889V336.256H22.6889ZM29.3651 336.256H30.3651V335.256H29.3651V336.256ZM29.3651 356V357H30.3651V356H29.3651ZM36 354.74V364.186H38V354.74H36ZM37.3197 363.238L0.956059 350.969L0.316667 352.864L36.6803 365.133L37.3197 363.238ZM1.63636 351.916L1.63636 340.215H-0.363638L-0.363638 351.916H1.63636ZM0.956059 341.163L37.3197 328.894L36.6803 326.999L0.316667 339.268L0.956059 341.163ZM36 327.946V337.392H38V327.946H36ZM36.7004 336.438L9.49874 344.979L10.0978 346.887L37.2996 338.346L36.7004 336.438ZM8.79829 345.933V346.217H10.7983V345.933H8.79829ZM9.49931 347.171L36.701 355.694L37.299 353.785L10.0973 345.263L9.49931 347.171ZM23.6889 356V336.256H21.6889V356H23.6889ZM22.6889 337.256H29.3651V335.256H22.6889V337.256ZM28.3651 336.256V356H30.3651V336.256H28.3651ZM29.3651 355H22.6889V357H29.3651V355ZM37 320.031V321.031H38V320.031H37ZM0.636362 320.031H-0.363638V321.031H0.636362V320.031ZM0.636362 294.676V293.676H-0.363638V294.676H0.636362ZM7.77415 294.676H8.77415V293.676H7.77415V294.676ZM7.77415 311.242H6.77415V312.242H7.77415V311.242ZM15.2315 311.242V312.242H16.2315V311.242H15.2315ZM15.2315 295.972V294.972H14.2315V295.972H15.2315ZM22.3871 295.972H23.3871V294.972H22.3871V295.972ZM22.3871 311.242H21.3871V312.242H22.3871V311.242ZM29.8622 311.242V312.242H30.8622V311.242H29.8622ZM29.8622 294.676V293.676H28.8622V294.676H29.8622ZM37 294.676H38V293.676H37V294.676ZM37 319.031H0.636362V321.031H37V319.031ZM1.63636 320.031V294.676H-0.363638V320.031H1.63636ZM0.636362 295.676H7.77415V293.676H0.636362V295.676ZM6.77415 294.676V311.242H8.77415V294.676H6.77415ZM7.77415 312.242H15.2315V310.242H7.77415V312.242ZM16.2315 311.242V295.972H14.2315V311.242H16.2315ZM15.2315 296.972H22.3871V294.972H15.2315V296.972ZM21.3871 295.972V311.242H23.3871V295.972H21.3871ZM22.3871 312.242H29.8622V310.242H22.3871V312.242ZM30.8622 311.242V294.676H28.8622V311.242H30.8622ZM29.8622 295.676H37V293.676H29.8622V295.676ZM36 294.676V320.031H38V294.676H36ZM37 285.172V286.172H38V285.172H37ZM0.636362 285.172H-0.363638V286.172H0.636362V285.172ZM2.11008 263.101L3.0056 263.546L3.00875 263.54L2.11008 263.101ZM6.30042 258.503L6.80916 259.364L6.81161 259.362L6.30042 258.503ZM19.1733 258.538L19.7054 257.691L19.7028 257.69L19.1733 258.538ZM23.1861 263.226L24.0979 262.815L24.0959 262.811L23.1861 263.226ZM24.5533 279.916V280.916H25.5533V279.916H24.5533ZM17.6285 279.916H16.6285V280.916H17.6285V279.916ZM17.1136 268.73L18.0464 268.369L18.0438 268.363L17.1136 268.73ZM15.5156 266.688L16.0606 265.85L16.0543 265.846L15.5156 266.688ZM9.9581 266.688L10.4845 267.538L10.4905 267.534L9.9581 266.688ZM8.28906 268.73L9.21076 269.118L9.215 269.108L8.28906 268.73ZM7.72088 276.383H6.72088V277.383H7.72088V276.383ZM37 276.383H38V275.383H37V276.383ZM20.3807 264.699L19.9022 263.821L19.3807 264.105V264.699H20.3807ZM37 255.644H38V253.96L36.5215 254.766L37 255.644ZM37 265.232L37.4712 266.114L38 265.832V265.232H37ZM20.3807 274.11H19.3807V275.778L20.8519 274.992L20.3807 274.11ZM37 284.172H0.636362V286.172H37V284.172ZM1.63636 285.172L1.63636 270.15H-0.363638L-0.363638 285.172H1.63636ZM1.63636 270.15C1.63636 267.547 2.106 265.356 3.00558 263.546L1.21459 262.656C0.149204 264.8 -0.363638 267.309 -0.363638 270.15H1.63636ZM3.00875 263.54C3.89763 261.719 5.16258 260.337 6.80915 259.364L5.7917 257.642C3.79243 258.823 2.26383 260.507 1.21142 262.663L3.00875 263.54ZM6.81161 259.362C8.44223 258.392 10.4073 257.887 12.7457 257.887V255.887C10.1126 255.887 7.78078 256.459 5.78924 257.643L6.81161 259.362ZM12.7457 257.887C15.1198 257.887 17.0697 258.404 18.6438 259.387L19.7028 257.69C17.7494 256.471 15.4142 255.887 12.7457 255.887V257.887ZM18.6412 259.385C20.2152 260.374 21.4276 261.78 22.2763 263.641L24.0959 262.811C23.0979 260.623 21.6352 258.904 19.7053 257.691L18.6412 259.385ZM22.2743 263.636C23.1151 265.504 23.5533 267.754 23.5533 270.417H25.5533C25.5533 267.539 25.08 264.996 24.0979 262.815L22.2743 263.636ZM23.5533 270.417V279.916H25.5533V270.417H23.5533ZM24.5533 278.916H17.6285V280.916H24.5533V278.916ZM18.6285 279.916V272.05H16.6285V279.916H18.6285ZM18.6285 272.05C18.6285 270.646 18.4478 269.408 18.0463 268.369L16.1809 269.091C16.466 269.828 16.6285 270.803 16.6285 272.05H18.6285ZM18.0438 268.363C17.6236 267.298 16.9691 266.44 16.0606 265.85L14.9706 267.526C15.4826 267.859 15.8934 268.362 16.1835 269.097L18.0438 268.363ZM16.0543 265.846C15.1283 265.254 14.0027 264.996 12.7457 264.996V266.996C13.7378 266.996 14.4588 267.199 14.977 267.531L16.0543 265.846ZM12.7457 264.996C11.4879 264.996 10.36 265.254 9.42565 265.842L10.4905 267.534C11.024 267.199 11.7546 266.996 12.7457 266.996V264.996ZM9.43174 265.838C8.48686 266.423 7.80091 267.279 7.36313 268.352L9.215 269.108C9.51111 268.382 9.93785 267.877 10.4845 267.538L9.43174 265.838ZM7.36743 268.342C6.92236 269.399 6.72088 270.647 6.72088 272.05H8.72088C8.72088 270.826 8.89819 269.86 9.2107 269.118L7.36743 268.342ZM6.72088 272.05V276.383H8.72088V272.05H6.72088ZM7.72088 277.383H37V275.383H7.72088V277.383ZM36 276.383V285.172H38V276.383H36ZM20.8591 265.578L37.4785 256.522L36.5215 254.766L19.9022 263.821L20.8591 265.578ZM36 255.644V265.232H38V255.644H36ZM36.5288 264.35L19.9095 273.228L20.8519 274.992L37.4712 266.114L36.5288 264.35ZM21.3807 274.11V264.699H19.3807V274.11H21.3807ZM28.9922 216.053L28.5081 216.928L28.9922 216.053ZM35.331 222.303L34.4546 222.784L34.4555 222.786L35.331 222.303ZM35.3132 239.934L34.4394 239.448L35.3132 239.934ZM28.9744 246.166L29.4556 247.043L29.4601 247.041L28.9744 246.166ZM8.64417 246.166L8.16011 247.041L8.16297 247.043L8.64417 246.166ZM2.3054 239.934L3.18086 239.451L2.3054 239.934ZM2.3054 222.303L3.18086 222.786L3.18178 222.784L2.3054 222.303ZM8.64417 216.053L9.12824 216.928L8.64417 216.053ZM12.8168 223.741L13.1928 224.668L13.1985 224.665L12.8168 223.741ZM9.10582 226.617L9.93422 227.178L9.93666 227.174L9.10582 226.617ZM9.10582 235.602L9.93666 235.045L9.10582 235.602ZM12.8168 238.496L12.435 239.42L12.4407 239.423L12.8168 238.496ZM24.8196 238.496L25.1956 239.423L25.2014 239.42L24.8196 238.496ZM28.5305 235.602L27.6997 235.045L28.5305 235.602ZM28.5305 226.617L27.6997 227.174L27.7021 227.178L28.5305 226.617ZM24.8196 223.741L24.4378 224.665L24.4436 224.668L24.8196 223.741ZM18.8182 214.745C22.6928 214.745 25.9081 215.489 28.5081 216.928L29.4762 215.178C26.5128 213.538 22.9455 212.745 18.8182 212.745V214.745ZM28.5081 216.928C31.1349 218.381 33.107 220.332 34.4546 222.784L36.2073 221.821C34.6667 219.018 32.4129 216.802 29.4762 215.178L28.5081 216.928ZM34.4555 222.786C35.8108 225.241 36.4972 228.008 36.4972 231.11H38.4972C38.4972 227.701 37.7394 224.596 36.2064 221.819L34.4555 222.786ZM36.4972 231.11C36.4972 234.222 35.8052 236.994 34.4394 239.448L36.187 240.42C37.7332 237.642 38.4972 234.531 38.4972 231.11H36.4972ZM34.4394 239.448C33.0795 241.891 31.1056 243.838 28.4888 245.292L29.4601 247.041C32.383 245.417 34.635 243.209 36.187 240.42L34.4394 239.448ZM28.4932 245.29C25.8922 246.718 22.6815 247.457 18.8182 247.457V249.457C22.933 249.457 26.4932 248.669 29.4556 247.043L28.4932 245.29ZM18.8182 247.457C14.9424 247.457 11.726 246.717 9.12538 245.29L8.16297 247.043C11.1258 248.669 14.6921 249.457 18.8182 249.457V247.457ZM9.12824 245.291C6.50026 243.838 4.52811 241.891 3.18086 239.451L1.42993 240.417C2.97094 243.209 5.22464 245.418 8.16011 247.041L9.12824 245.291ZM3.18086 239.451C1.8259 236.996 1.1392 234.224 1.1392 231.11H-0.860797C-0.860797 234.529 -0.10336 237.64 1.42993 240.417L3.18086 239.451ZM1.1392 231.11C1.1392 228.008 1.8256 225.241 3.18086 222.786L1.42993 221.819C-0.103063 224.596 -0.860797 227.701 -0.860797 231.11H1.1392ZM3.18178 222.784C4.52936 220.332 6.50141 218.381 9.12824 216.928L8.16011 215.178C5.22349 216.802 2.9697 219.018 1.42901 221.821L3.18178 222.784ZM9.12824 216.928C11.7282 215.489 14.9436 214.745 18.8182 214.745V212.745C14.6909 212.745 11.1236 213.538 8.16011 215.178L9.12824 216.928ZM18.8182 221.729C16.3617 221.729 14.2231 222.078 12.435 222.817L13.1985 224.665C14.6774 224.054 16.5398 223.729 18.8182 223.729V221.729ZM12.4407 222.814C10.6538 223.539 9.2443 224.614 8.27498 226.061L9.93666 227.174C10.6482 226.112 11.7127 225.268 13.1928 224.668L12.4407 222.814ZM8.27743 226.057C7.30737 227.492 6.84517 229.192 6.84517 231.11H8.84517C8.84517 229.523 9.2234 228.229 9.93421 227.178L8.27743 226.057ZM6.84517 231.11C6.84517 233.017 7.30819 234.715 8.27498 236.158L9.93666 235.045C9.22259 233.979 8.84517 232.682 8.84517 231.11H6.84517ZM8.27498 236.158C9.24318 237.604 10.6506 238.683 12.435 239.42L13.1985 237.572C11.7159 236.959 10.6493 236.109 9.93666 235.045L8.27498 236.158ZM12.4407 239.423C14.227 240.147 16.3635 240.49 18.8182 240.49V238.49C16.538 238.49 14.6735 238.17 13.1928 237.569L12.4407 239.423ZM18.8182 240.49C21.2729 240.49 23.4093 240.147 25.1956 239.423L24.4436 237.569C22.9628 238.17 21.0983 238.49 18.8182 238.49V240.49ZM25.2014 239.42C26.9858 238.683 28.3932 237.604 29.3614 236.158L27.6997 235.045C26.987 236.109 25.9204 236.959 24.4378 237.572L25.2014 239.42ZM29.3614 236.158C30.3282 234.715 30.7912 233.017 30.7912 231.11H28.7912C28.7912 232.682 28.4138 233.979 27.6997 235.045L29.3614 236.158ZM30.7912 231.11C30.7912 229.192 30.329 227.492 29.3589 226.057L27.7021 227.178C28.413 228.229 28.7912 229.523 28.7912 231.11H30.7912ZM29.3614 226.061C28.3921 224.614 26.9826 223.539 25.1956 222.814L24.4436 224.668C25.9237 225.268 26.9881 226.112 27.6997 227.174L29.3614 226.061ZM25.2014 222.817C23.4132 222.078 21.2746 221.729 18.8182 221.729V223.729C21.0966 223.729 22.9589 224.054 24.4378 224.665L25.2014 222.817ZM37 204.613V205.613H38V204.613H37ZM0.636362 204.613H-0.363638V205.613H0.636362V204.613ZM2.82031 181.62L3.69867 182.098L3.70116 182.093L2.82031 181.62ZM9.07031 175.405L9.5419 176.287L9.5435 176.286L9.07031 175.405ZM28.5661 175.405L28.0945 176.287L28.0975 176.288L28.5661 175.405ZM34.8338 181.602L35.7147 181.128L35.713 181.125L34.8338 181.602ZM29.5071 195.824V196.824H30.5071V195.824H29.5071ZM28.4773 186.342L29.3762 185.904L29.3747 185.901L28.4773 186.342ZM25.0859 183.129L24.6634 184.035L24.6664 184.036L25.0859 183.129ZM12.5504 183.129L12.9756 184.034L12.9782 184.033L12.5504 183.129ZM9.17685 186.378L10.0743 186.819L10.0786 186.81L9.17685 186.378ZM8.12926 195.824H7.12926V196.824H8.12926V195.824ZM36 191.172V204.613H38V191.172H36ZM37 203.613H0.636362V205.613H37V203.613ZM1.63636 204.613L1.63636 191.19H-0.363638L-0.363638 204.613H1.63636ZM1.63636 191.19C1.63636 187.616 2.33806 184.597 3.69865 182.098L1.94197 181.141C0.390628 183.992 -0.363638 187.354 -0.363638 191.19H1.63636ZM3.70116 182.093C5.05086 179.582 6.99078 177.651 9.54189 176.287L8.59873 174.523C5.70477 176.071 3.47802 178.283 1.93947 181.146L3.70116 182.093ZM9.5435 176.286C12.0792 174.924 15.1525 174.221 18.8004 174.221V172.221C14.8963 172.221 11.4828 172.974 8.59713 174.524L9.5435 176.286ZM18.8004 174.221C22.4607 174.221 25.5464 174.924 28.0945 176.287L29.0376 174.523C26.1407 172.974 22.716 172.221 18.8004 172.221V174.221ZM28.0975 176.288C30.6476 177.641 32.5933 179.566 33.9546 182.078L35.713 181.125C34.1624 178.264 31.9296 176.057 29.0346 174.522L28.0975 176.288ZM33.953 182.075C35.304 184.589 36 187.61 36 191.172H38C38 187.348 37.2519 183.989 35.7147 181.128L33.953 182.075ZM30.5071 195.824V191.509H28.5071V195.824H30.5071ZM30.5071 191.509C30.5071 189.365 30.1461 187.484 29.3762 185.904L27.5784 186.781C28.1816 188.018 28.5071 189.582 28.5071 191.509H30.5071ZM29.3747 185.901C28.5661 184.257 27.2565 183.03 25.5054 182.221L24.6664 184.036C26.0403 184.671 26.9917 185.587 27.5799 186.784L29.3747 185.901ZM25.5084 182.222C23.752 181.404 21.4952 181.028 18.8004 181.028V183.028C21.3377 183.028 23.2712 183.386 24.6634 184.035L25.5084 182.222ZM18.8004 181.028C16.1069 181.028 13.8587 181.403 12.1226 182.225L12.9782 184.033C14.3435 183.386 16.262 183.028 18.8004 183.028V181.028ZM12.1253 182.224C10.3736 183.046 9.07016 184.287 8.27509 185.946L10.0786 186.81C10.6566 185.604 11.6023 184.679 12.9756 184.034L12.1253 182.224ZM8.27945 185.937C7.4957 187.531 7.12926 189.444 7.12926 191.634H9.12926C9.12926 189.657 9.46121 188.066 10.0742 186.819L8.27945 185.937ZM7.12926 191.634V195.824H9.12926V191.634H7.12926ZM8.12926 196.824H29.5071V194.824H8.12926V196.824ZM37 164.09V165.09H38V164.09H37ZM0.636362 164.09H-0.363638V165.09H0.636362V164.09ZM0.636362 138.735V137.735H-0.363638V138.735H0.636362ZM7.77415 138.735H8.77415V137.735H7.77415V138.735ZM7.77415 155.301H6.77415V156.301H7.77415V155.301ZM15.2315 155.301V156.301H16.2315V155.301H15.2315ZM15.2315 140.031V139.031H14.2315V140.031H15.2315ZM22.3871 140.031H23.3871V139.031H22.3871V140.031ZM22.3871 155.301H21.3871V156.301H22.3871V155.301ZM29.8622 155.301V156.301H30.8622V155.301H29.8622ZM29.8622 138.735V137.735H28.8622V138.735H29.8622ZM37 138.735H38V137.735H37V138.735ZM37 163.09H0.636362V165.09H37L37 163.09ZM1.63636 164.09V138.735H-0.363638V164.09H1.63636ZM0.636362 139.735H7.77415V137.735H0.636362V139.735ZM6.77415 138.735V155.301H8.77415V138.735H6.77415ZM7.77415 156.301H15.2315V154.301H7.77415V156.301ZM16.2315 155.301V140.031H14.2315V155.301H16.2315ZM15.2315 141.031H22.3871V139.031H15.2315V141.031ZM21.3871 140.031V155.301H23.3871V140.031H21.3871ZM22.3871 156.301H29.8622V154.301H22.3871V156.301ZM30.8622 155.301V138.735H28.8622V155.301H30.8622ZM29.8622 139.735H37V137.735H29.8622V139.735ZM36 138.735L36 164.09H38L38 138.735H36ZM11.5383 109.575L11.6289 110.571L12.5383 110.488V109.575H11.5383ZM8.50213 111.155L9.28503 111.777L9.29364 111.766L8.50213 111.155ZM7.84517 117.955L6.91371 118.319L7.84517 117.955ZM9.07031 119.66L9.66736 118.858L9.65848 118.851L9.07031 119.66ZM10.8281 120.246L10.8716 119.247L10.8588 119.246L10.846 119.246L10.8281 120.246ZM12.2663 119.926L12.7625 120.795L12.7717 120.789L12.7808 120.784L12.2663 119.926ZM13.3672 118.861L14.1894 119.43L14.1977 119.418L14.2056 119.406L13.3672 118.861ZM14.1839 117.156L13.2422 116.82L14.1839 117.156ZM14.8054 114.919L13.8302 114.698L13.8276 114.71L14.8054 114.919ZM15.5156 111.794L16.4908 112.016L16.4929 112.006L15.5156 111.794ZM17.0781 107.036L17.9817 107.464L17.9831 107.461L17.0781 107.036ZM19.4041 103.556L20.1248 104.249L20.1291 104.244L19.4041 103.556ZM22.5114 101.407L22.894 102.331L22.5114 101.407ZM26.4531 100.661L26.4583 99.6613L26.445 99.6614L26.4531 100.661ZM32.3658 102.401L31.7935 103.222L32.3658 102.401ZM36.1477 107.355L35.2214 107.732L35.2221 107.734L36.1477 107.355ZM36.0945 123.069L35.167 122.695L36.0945 123.069ZM31.9396 128.342L32.4992 129.171L31.9396 128.342ZM24.8906 130.278H23.8906V131.29L24.9031 131.278L24.8906 130.278ZM24.8906 121.862L24.8301 120.864L23.8906 120.92V121.862H24.8906ZM27.8203 120.921L28.4004 121.735L27.8203 120.921ZM29.5959 118.63L30.5196 119.013L30.5213 119.009L29.5959 118.63ZM29.7202 112.203L28.7855 112.558L28.7872 112.562L29.7202 112.203ZM28.3885 110.267L27.7678 111.051L28.3885 110.267ZM26.4354 109.575L26.4515 108.575L26.4348 108.575L26.4181 108.575L26.4354 109.575ZM24.6776 110.214L25.3178 110.982L25.3268 110.975L24.6776 110.214ZM23.3991 112.132L24.3176 112.527L24.3209 112.519L24.3241 112.512L23.3991 112.132ZM22.3871 115.399L23.3608 115.626L23.3612 115.625L22.3871 115.399ZM21.4993 119.198L20.5255 118.971L20.5246 118.975L21.4993 119.198ZM18.0014 126.638L18.7464 127.305L18.7488 127.302L18.0014 126.638ZM11.4318 129.337L11.4361 128.337L11.4266 128.337L11.4318 129.337ZM5.51917 127.526L4.93472 128.337L5.51917 127.526ZM1.55966 122.465L2.47512 122.063L1.55966 122.465ZM1.57741 107.764L2.48494 108.184L2.48778 108.177L1.57741 107.764ZM5.57244 102.916L5.01642 102.085H5.01642L5.57244 102.916ZM11.5383 101.159H12.5383V100.148L11.5279 100.159L11.5383 101.159ZM11.4478 108.579C9.90153 108.719 8.6218 109.364 7.71062 110.544L9.29364 111.766C9.82659 111.076 10.571 110.667 11.6289 110.571L11.4478 108.579ZM7.71931 110.533C6.79329 111.698 6.40128 113.272 6.40128 115.115H8.40128C8.40128 113.525 8.74317 112.459 9.28495 111.777L7.71931 110.533ZM6.40128 115.115C6.40128 116.33 6.55836 117.41 6.91371 118.319L8.77663 117.592C8.54012 116.986 8.40128 116.172 8.40128 115.115H6.40128ZM6.91371 118.319C7.26101 119.208 7.77073 119.951 8.48214 120.469L9.65848 118.851C9.32823 118.611 9.02118 118.218 8.77663 117.592L6.91371 118.319ZM8.4733 120.462C9.1578 120.972 9.94843 121.23 10.8103 121.246L10.846 119.246C10.3821 119.238 10.0008 119.106 9.66732 118.858L8.4733 120.462ZM10.7847 121.245C11.4903 121.276 12.1619 121.138 12.7625 120.795L11.7702 119.058C11.5421 119.188 11.2549 119.264 10.8716 119.247L10.7847 121.245ZM12.7808 120.784C13.3352 120.451 13.8019 119.99 14.1894 119.43L12.545 118.292C12.2933 118.655 12.026 118.904 11.7518 119.069L12.7808 120.784ZM14.2056 119.406C14.5647 118.854 14.8689 118.212 15.1257 117.493L13.2422 116.82C13.0255 117.427 12.7852 117.921 12.5287 118.316L14.2056 119.406ZM15.1257 117.493C15.3798 116.781 15.5982 115.992 15.7832 115.129L13.8276 114.71C13.6575 115.504 13.4615 116.206 13.2422 116.82L15.1257 117.493ZM15.7805 115.141L16.4908 112.016L14.5405 111.573L13.8303 114.698L15.7805 115.141ZM16.4929 112.006C16.8706 110.267 17.3694 108.755 17.9817 107.464L16.1745 106.607C15.4847 108.062 14.9419 109.723 14.5384 111.582L16.4929 112.006ZM17.9831 107.461C18.5959 106.158 19.313 105.093 20.1248 104.249L18.6835 102.862C17.696 103.889 16.8625 105.144 16.1731 106.61L17.9831 107.461ZM20.1291 104.244C20.9353 103.396 21.8553 102.761 22.894 102.331L22.1287 100.483C20.8236 101.024 19.6722 101.821 18.6791 102.867L20.1291 104.244ZM22.894 102.331C23.9308 101.902 25.115 101.672 26.4613 101.661L26.445 99.6614C24.8793 99.6742 23.4356 99.942 22.1287 100.483L22.894 102.331ZM26.448 101.661C28.5718 101.672 30.3378 102.206 31.7935 103.222L32.938 101.581C31.103 100.301 28.9273 99.6741 26.4583 99.6614L26.448 101.661ZM31.7935 103.222C33.2565 104.242 34.4063 105.727 35.2214 107.732L37.0741 106.979C36.1372 104.674 34.7657 102.857 32.938 101.581L31.7935 103.222ZM35.2221 107.734C36.0363 109.725 36.4616 112.176 36.4616 115.115H38.4616C38.4616 111.993 38.011 109.27 37.0734 106.977L35.2221 107.734ZM36.4616 115.115C36.4616 118.059 36.0203 120.579 35.167 122.695L37.0219 123.443C37.9916 121.038 38.4616 118.254 38.4616 115.115H36.4616ZM35.167 122.695C34.3233 124.788 33.0588 126.38 31.3801 127.514L32.4992 129.171C34.5373 127.795 36.0427 125.872 37.0219 123.443L35.167 122.695ZM31.3801 127.514C29.7216 128.633 27.5758 129.244 24.8781 129.278L24.9031 131.278C27.8873 131.241 30.4408 130.561 32.4992 129.171L31.3801 127.514ZM25.8906 130.278V121.862H23.8906V130.278H25.8906ZM24.9511 122.86C26.268 122.78 27.4356 122.422 28.4004 121.735L27.2402 120.106C26.6425 120.532 25.857 120.801 24.8301 120.864L24.9511 122.86ZM28.4004 121.735C29.3488 121.06 30.0524 120.14 30.5196 119.013L28.6721 118.247C28.3344 119.062 27.8543 119.669 27.2402 120.106L28.4004 121.735ZM30.5213 119.009C30.9824 117.884 31.1996 116.614 31.1996 115.221H29.1996C29.1996 116.409 29.0143 117.412 28.6705 118.251L30.5213 119.009ZM31.1996 115.221C31.1996 113.953 31.0291 112.817 30.6532 111.843L28.7872 112.562C29.0504 113.245 29.1996 114.122 29.1996 115.221H31.1996ZM30.6549 111.847C30.2865 110.878 29.7491 110.069 29.0092 109.483L27.7678 111.051C28.1642 111.365 28.5146 111.846 28.7855 112.558L30.6549 111.847ZM29.0092 109.483C28.2663 108.895 27.4021 108.59 26.4515 108.575L26.4192 110.575C26.9364 110.583 27.3743 110.74 27.7678 111.051L29.0092 109.483ZM26.4181 108.575C25.5185 108.59 24.7041 108.877 24.0283 109.453L25.3268 110.975C25.6217 110.723 25.9791 110.583 26.4526 110.575L26.4181 108.575ZM24.0374 109.446C23.372 110 22.8656 110.799 22.4742 111.751L24.3241 112.512C24.6429 111.736 24.9888 111.256 25.3177 110.982L24.0374 109.446ZM22.4807 111.736C22.0821 112.662 21.7286 113.813 21.413 115.172L23.3612 115.625C23.6611 114.333 23.9823 113.306 24.3176 112.527L22.4807 111.736ZM21.4133 115.171L20.5255 118.971L22.4731 119.426L23.3608 115.626L21.4133 115.171ZM20.5246 118.975C19.828 122.012 18.7213 124.323 17.254 125.974L18.7488 127.302C20.5013 125.331 21.7264 122.682 22.474 119.422L20.5246 118.975ZM17.2564 125.971C15.8522 127.539 13.951 128.348 11.4361 128.337L11.4275 130.337C14.4287 130.35 16.9073 129.359 18.7464 127.305L17.2564 125.971ZM11.4266 128.337C9.37159 128.348 7.611 127.8 6.10363 126.714L4.93472 128.337C6.81277 129.69 8.99394 130.35 11.4371 130.337L11.4266 128.337ZM6.10363 126.714C4.57364 125.612 3.35965 124.075 2.47512 122.063L0.644196 122.868C1.65361 125.164 3.07929 127.001 4.93472 128.337L6.10363 126.714ZM2.47512 122.063C1.59266 120.055 1.1392 117.74 1.1392 115.097H-0.860797C-0.860797 117.97 -0.367282 120.567 0.644197 122.868L2.47512 122.063ZM1.1392 115.097C1.1392 112.391 1.59958 110.096 2.48492 108.184L0.669909 107.344C-0.362372 109.574 -0.860797 112.168 -0.860797 115.097H1.1392ZM2.48778 108.177C3.36635 106.245 4.58312 104.781 6.12847 103.748L5.01642 102.085C3.129 103.348 1.68241 105.116 0.667047 107.35L2.48778 108.177ZM6.12847 103.748C7.66801 102.718 9.46312 102.18 11.5488 102.159L11.5279 100.159C9.0918 100.184 6.90964 100.819 5.01642 102.085L6.12847 103.748ZM10.5383 101.159V109.575H12.5383V101.159H10.5383ZM0.636362 83.4334V82.4334H-0.363638V83.4334H0.636362ZM37 83.4334H38V82.4334H37V83.4334ZM37 92.2225V93.2225H38V92.2225H37ZM0.636362 92.2225H-0.363638V93.2225H0.636362V92.2225ZM0.636362 84.4334H37V82.4334H0.636362V84.4334ZM36 83.4334V92.2225H38V83.4334H36ZM37 91.2225H0.636362V93.2225H37V91.2225ZM1.63636 92.2225V83.4334H-0.363638V92.2225H1.63636ZM12.5149 50.0522L12.7754 51.0176L13.5149 50.8181V50.0522H12.5149ZM10.544 50.94L11.1027 51.7695L11.1106 51.764L10.544 50.94ZM8.16477 54.3313L9.12512 54.6101L9.1272 54.603L9.12918 54.5958L8.16477 54.3313ZM9.12358 61.3271L8.28917 61.8782L8.29153 61.8818L9.12358 61.3271ZM12.8523 64.2922L13.2478 63.3738L13.2454 63.3727L12.8523 64.2922ZM24.7308 64.3278L24.3514 63.4025L24.7308 64.3278ZM28.495 61.3981L27.6665 60.8381L28.495 61.3981ZM29.0099 52.6623L29.9156 52.2383L29.9137 52.2342L29.0099 52.6623ZM26.755 50.1055L26.242 50.9639L26.755 50.1055ZM23.3281 49.2354L22.3352 49.1167L22.2014 50.2354H23.3281V49.2354ZM23.5234 47.6019H24.5234L22.5305 47.4832L23.5234 47.6019ZM23.5234 56.4443V57.4443H24.5234V56.4443H23.5234ZM17.1136 56.4443H16.1136V57.4443H17.1136V56.4443ZM17.1136 40.766V39.766H16.1136V40.766H17.1136ZM30.2884 42.8434L29.7758 43.702L29.779 43.704L30.2884 42.8434ZM35.6328 48.5252L34.7437 48.9828L34.7446 48.9846L35.6328 48.5252ZM35.2422 65.9613L34.3742 65.4647L35.2422 65.9613ZM28.8146 72.1047L29.2798 72.99L29.2813 72.9892L28.8146 72.1047ZM10.9347 72.9748L11.2936 72.0414L11.292 72.0408L10.9347 72.9748ZM5.03977 69.2639L4.33527 69.9736L4.33792 69.9762L5.03977 69.2639ZM1.3821 63.7241L0.451474 64.09L0.452182 64.0919L1.3821 63.7241ZM1.04474 51.0465L1.99343 51.3627L1.99404 51.3609L1.04474 51.0465ZM3.60156 46.217L4.38696 46.836L4.38949 46.8328L3.60156 46.217ZM7.52557 42.7901L8.02607 43.6559L7.52557 42.7901ZM12.5149 41.1566H13.5149V40.032L12.3981 40.1635L12.5149 41.1566ZM12.2544 49.0867C11.4124 49.314 10.6495 49.654 9.9775 50.116L11.1106 51.764C11.575 51.4448 12.1259 51.1929 12.7754 51.0176L12.2544 49.0867ZM9.98543 50.1105C9.30556 50.5684 8.72696 51.1329 8.25429 51.8002L9.88634 52.9562C10.2186 52.4871 10.6225 52.0928 11.1026 51.7694L9.98543 50.1105ZM8.25429 51.8002C7.77849 52.4719 7.42955 53.2311 7.20037 54.0669L9.12918 54.5958C9.30246 53.9638 9.55721 53.4208 9.88634 52.9562L8.25429 51.8002ZM7.20443 54.0525C6.96154 54.8891 6.84517 55.7893 6.84517 56.7461H8.84517C8.84517 55.951 8.94187 55.2413 9.12512 54.6101L7.20443 54.0525ZM6.84517 56.7461C6.84517 58.6774 7.31425 60.4023 8.28918 61.8782L9.95798 60.7759C9.22836 59.6713 8.84517 58.3422 8.84517 56.7461H6.84517ZM8.29153 61.8818C9.26761 63.3459 10.6756 64.4492 12.4592 65.2117L13.2454 63.3727C11.7619 62.7385 10.6841 61.8651 9.95563 60.7723L8.29153 61.8818ZM12.4567 65.2107C14.2359 65.9769 16.3495 66.3398 18.7649 66.3398V64.3398C16.5402 64.3398 14.712 64.0043 13.2478 63.3738L12.4567 65.2107ZM18.7649 66.3398C21.1885 66.3398 23.3134 65.9899 25.1102 65.253L24.3514 63.4025C22.8576 64.0151 21.0052 64.3398 18.7649 64.3398V66.3398ZM25.1102 65.253C26.9094 64.5152 28.3329 63.4237 29.3235 61.9581L27.6665 60.8381C26.929 61.9293 25.8429 62.7909 24.3514 63.4025L25.1102 65.253ZM29.3235 61.9581C30.3185 60.4861 30.7912 58.7316 30.7912 56.7461H28.7912C28.7912 58.4064 28.3998 59.7532 27.6665 60.8381L29.3235 61.9581ZM30.7912 56.7461C30.7912 55.0333 30.5147 53.5182 29.9156 52.2383L28.1043 53.0862C28.5468 54.0317 28.7912 55.2392 28.7912 56.7461H30.7912ZM29.9137 52.2342C29.3051 50.9494 28.4255 49.9388 27.2679 49.2471L26.242 50.9639C27.0257 51.4322 27.6494 52.1261 28.1062 53.0904L29.9137 52.2342ZM27.2679 49.2471C26.1186 48.5602 24.793 48.2354 23.3281 48.2354V50.2354C24.4911 50.2354 25.4501 50.4907 26.242 50.9639L27.2679 49.2471ZM24.3211 49.3542L24.5164 47.7206L22.5305 47.4832L22.3352 49.1167L24.3211 49.3542ZM22.5234 47.6019V56.4443H24.5234V47.6019H22.5234ZM23.5234 55.4443H17.1136V57.4443H23.5234V55.4443ZM18.1136 56.4443V40.766H16.1136V56.4443H18.1136ZM17.1136 41.766H21.9254V39.766H17.1136V41.766ZM21.9254 41.766C25.0372 41.766 27.6397 42.4269 29.7758 43.702L30.8009 41.9847C28.2969 40.49 25.3241 39.766 21.9254 39.766V41.766ZM29.779 43.704C31.9358 44.9805 33.5863 46.7341 34.7437 48.9828L36.5219 48.0676C35.1936 45.4867 33.281 43.4526 30.7977 41.9828L29.779 43.704ZM34.7446 48.9846C35.9034 51.225 36.4972 53.8271 36.4972 56.8171H38.4972C38.4972 53.5571 37.848 50.6313 36.521 48.0658L34.7446 48.9846ZM36.4972 56.8171C36.4972 60.1369 35.7791 63.009 34.3742 65.4647L36.1102 66.4578C37.7119 63.658 38.4972 60.4338 38.4972 56.8171H36.4972ZM34.3742 65.4647C32.9689 67.9212 30.9687 69.8375 28.348 71.2203L29.2813 72.9892C32.224 71.4364 34.5088 69.2571 36.1102 66.4578L34.3742 65.4647ZM28.3495 71.2195C25.7271 72.5974 22.5792 73.3065 18.8714 73.3065V75.3065C22.8342 75.3065 26.315 74.5477 29.2798 72.99L28.3495 71.2195ZM18.8714 73.3065C15.9866 73.3065 13.4664 72.8771 11.2936 72.0414L10.5757 73.9081C13.0194 74.848 15.7904 75.3065 18.8714 75.3065V73.3065ZM11.292 72.0408C9.08798 71.1974 7.2438 70.0316 5.74162 68.5515L4.33792 69.9762C6.05544 71.6685 8.14119 72.9766 10.5773 73.9088L11.292 72.0408ZM5.74426 68.5541C4.23166 67.0527 3.08952 65.3223 2.31202 63.3563L0.452182 64.0919C1.33188 66.3162 2.62819 68.279 4.33528 69.9736L5.74426 68.5541ZM2.31272 63.3581C1.53317 61.3758 1.1392 59.2341 1.1392 56.9236H-0.860797C-0.860797 59.4664 -0.42617 61.8583 0.451476 64.09L2.31272 63.3581ZM1.1392 56.9236C1.1392 54.913 1.42705 53.0619 1.99343 51.3627L0.0960608 50.7303C-0.544954 52.6533 -0.860797 54.7202 -0.860797 56.9236H1.1392ZM1.99404 51.3609C2.56413 49.6395 3.36355 48.1345 4.38696 46.836L2.81617 45.598C1.63787 47.093 0.732743 48.8077 0.0954456 50.7321L1.99404 51.3609ZM4.38949 46.8328C5.41317 45.5229 6.62427 44.4663 8.02607 43.6559L7.02507 41.9244C5.39656 42.8658 3.99166 44.0938 2.81364 45.6012L4.38949 46.8328ZM8.02607 43.6559C9.4184 42.851 10.9501 42.3476 12.6318 42.1498L12.3981 40.1635C10.4576 40.3917 8.66304 40.9774 7.02506 41.9244L8.02607 43.6559ZM11.5149 41.1566V50.0522H13.5149V41.1566H11.5149ZM0.636362 0.637634V-0.362366H-0.363638V0.637634H0.636362ZM37 0.637634H38V-0.362366H37V0.637634ZM37 8.09497L37.5676 8.91827L38 8.62018V8.09497H37ZM16.0128 22.5659L15.4451 21.7426L15.0128 22.0407V22.5659H16.0128ZM16.0128 22.7967H15.0128V23.7967H16.0128V22.7967ZM37 22.7967H38V21.7967H37V22.7967ZM37 31.5858V32.5858H38V31.5858H37ZM0.636362 31.5858H-0.363638V32.5858H0.636362V31.5858ZM0.636362 24.0219L0.0723314 23.1961L-0.363638 23.4939V24.0219H0.636362ZM21.5881 9.71075L22.1521 10.5365L22.5881 10.2387V9.71075H21.5881ZM21.5881 9.40894H22.5881V8.40894H21.5881V9.40894ZM0.636362 9.40894H-0.363638V10.4089H0.636362V9.40894ZM0.636362 1.63763H37V-0.362366H0.636362V1.63763ZM36 0.637634V8.09497H38V0.637634H36ZM36.4324 7.27173L15.4451 21.7426L16.5804 23.3892L37.5676 8.91827L36.4324 7.27173ZM15.0128 22.5659V22.7967H17.0128V22.5659H15.0128ZM16.0128 23.7967H37V21.7967H16.0128V23.7967ZM36 22.7967V31.5858H38V22.7967H36ZM37 30.5858H0.636362V32.5858H37V30.5858ZM1.63636 31.5858V24.0219H-0.363638V31.5858H1.63636ZM1.20039 24.8476L22.1521 10.5365L21.024 8.88501L0.0723314 23.1961L1.20039 24.8476ZM22.5881 9.71075V9.40894H20.5881V9.71075H22.5881ZM21.5881 8.40894H0.636362V10.4089H21.5881V8.40894ZM1.63636 9.40894V0.637634H-0.363638V9.40894H1.63636Z" fill="black"/>
</svg>
