<svg xmlns="http://www.w3.org/2000/svg" xmlns:xlink="http://www.w3.org/1999/xlink" width="1413.62" height="388.293" viewBox="0 0 1413.62 388.293"><defs><linearGradient id="linear-gradient" x1="0.5" y1="0.074" x2="0.5" y2="1" gradientUnits="objectBoundingBox"><stop offset="0" stop-color="#ff004c"></stop><stop offset="0.46" stop-color="#7c0a58"></stop><stop offset="1" stop-color="#081363"></stop></linearGradient></defs><g id="Benzor_Engenharia" data-name="Benzor Engenharia" transform="translate(0 -0.19)"><g id="_ff004cff" data-name="#ff004cff"><path id="Caminho_174" data-name="Caminho 174" d="M959.47,15.72A149.725,149.725,0,0,1,994.03.9c6.81,6.27,13.26,13,19.97,19.42a137.081,137.081,0,0,1,46.69-.38q9.72-9.855,19.41-19.75a150.621,150.621,0,0,1,34.99,14.02c.32,9.32-.16,18.81.52,28.03a133.6,133.6,0,0,1,32.88,32.29c9.26.59,18.83-.33,28.14.16a165.543,165.543,0,0,1,14.55,34.37c-6.28,6.82-13.02,13.25-19.43,19.96a139.091,139.091,0,0,1,.4,46.77c6.6,6.48,13.24,12.94,19.8,19.46a158.785,158.785,0,0,1-14.11,34.88q-13.785.195-27.56.25c-9.21,12.52-19.94,24.21-32.78,33.17-.57,9.28.46,18.94-.23,28.17a162.5,162.5,0,0,1-34.37,14.5c-6.69-6.42-13.21-13.02-19.89-19.45a136.966,136.966,0,0,1-46.67.4c-6.56,6.56-12.97,13.26-19.53,19.8a156.707,156.707,0,0,1-34.89-14.1c-.12-9.22-.18-18.44-.25-27.66-12.68-9.09-24.21-19.95-33.22-32.76-9.34-.36-18.86.46-28.12-.13-2.81-4.66-4.76-10.05-7.7-14.43h0l.43-.5c-3.1-6.17-5.18-12.84-7.22-19.43,6.39-6.72,13.03-13.22,19.45-19.92a137.647,137.647,0,0,1-.41-46.7c-6.59-6.51-13.25-12.96-19.8-19.51a158.343,158.343,0,0,1,14.11-34.86c9.18-.14,18.38-.19,27.57-.27,9.2-12.53,19.96-24.22,32.81-33.18.27-9.23-.08-18.54-.1-27.8m68.07,25.11a113.272,113.272,0,1,0,82.6,25.01A113.1,113.1,0,0,0,1027.54,40.83Z" fill="url(#linear-gradient)"></path><path id="Caminho_175" data-name="Caminho 175" d="M1026.79,77.73a18.877,18.877,0,0,1,32.39-3.37c8.13.23,16.31.03,24.46.1a89.478,89.478,0,0,1,24.51,20.37c.27.47.8,1.41,1.07,1.88-16.54-.12-33.08.04-49.61-.08-2.4,2.23-4.63,4.91-7.81,6.15a18.907,18.907,0,0,1-25.01-25.05Z" fill="url(#linear-gradient)"></path><path id="Caminho_176" data-name="Caminho 176" d="M977.76,108.36a18.88,18.88,0,1,1,0,22.41c-9.14-.24-18.31-.02-27.46-.11a89.668,89.668,0,0,1,9.06-22.21C965.49,108.37,971.63,108.56,977.76,108.36Z" fill="url(#linear-gradient)"></path><path id="Caminho_177" data-name="Caminho 177" d="M1025.93,147.97a18.886,18.886,0,0,1,33.24-5.63c23.19.21,46.43.09,69.64.06a77.654,77.654,0,0,1,.09,22.27c-23.1-.07-46.2.05-69.29-.06-2.13,1.89-3.94,4.32-6.63,5.56a18.9,18.9,0,0,1-27.05-22.2Z" fill="url(#linear-gradient)"></path><path id="Caminho_178" data-name="Caminho 178" d="M977.86,176.22a18.882,18.882,0,1,1-.1,22.53c-6.12-.24-12.28-.01-18.41-.11a89.887,89.887,0,0,1-9.05-22.19C959.47,176.28,968.78,176.74,977.86,176.22Z" fill="url(#linear-gradient)"></path><path id="Caminho_179" data-name="Caminho 179" d="M1027.11,213.03a18.91,18.91,0,0,1,32.11-2.67c16.59.14,33.2.04,49.81.05-.05.27-.14.82-.19,1.09a91.323,91.323,0,0,1-25.2,21.15c-8.16.1-16.38-.2-24.5.15a18.89,18.89,0,0,1-32.03-19.77Z" fill="url(#linear-gradient)"></path></g><g id="_ffffffff" data-name="#ffffffff"><path id="Caminho_180" data-name="Caminho 180" d="M.63,34.51q59.19-.045,118.38-.01c13.07.29,26.3.67,38.93,4.49,17.65,4.7,34.41,16.22,41.71,33.43a61.908,61.908,0,0,1-1.09,48.1c-6.17,13.16-18.32,22.43-31.39,28.19,13.72,4.89,27.74,11.54,36.6,23.56,9.09,11.34,11.6,26.56,10.6,40.72a57.275,57.275,0,0,1-7.96,26.1c-5.32,9.08-13.4,16.3-22.48,21.51-17.65,9.73-38.1,12.97-57.94,13.15-41.79-.1-83.65.19-125.4-.15Q.725,154.05.63,34.51m64.62,53.5c-.01,13.99.01,27.98-.01,41.96,15.97-.02,31.96.22,47.91-.19,6.21-.86,12.69-1.94,17.87-5.72,10.05-7.19,9.8-24.74-.98-31.15-6.28-3.93-13.88-4.75-21.1-4.91-14.56.01-29.13-.02-43.69.01m.15,132.53c16.87-.09,33.74-.01,50.61-.04,7.7-.14,15.81-.91,22.58-4.98,10.61-5.79,13.02-22.07,4.61-30.7-5.22-5.45-12.97-7.05-20.14-8.11-19.21-.48-38.5-.06-57.75-.24C65.26,191.15,65.09,205.91,65.4,220.54Z" fill="#081363"></path><path id="Caminho_181" data-name="Caminho 181" d="M227.51,34.51q96.18-.015,192.36.01,0,28.23,0,56.47-63.375.045-126.74.02-.015,18.12,0,36.23,57.36.045,114.74.02c-.02,17.42.05,34.84-.04,52.25q-57.345-.045-114.7-.01c.03,12.68-.11,25.36.07,38.03q64.2-.1,128.41-.03.03,28.125.01,56.24-97.035.03-194.08.02Q227.4,154.135,227.51,34.51Z" fill="#081363"></path><path id="Caminho_182" data-name="Caminho 182" d="M437.89,34.51c20.5-.04,41,.03,61.5-.03,4.47,4.82,8.25,10.47,12.46,15.61q43.11,55.515,86.3,111-.075-63.3-.01-126.59c21.85-.01,43.71.03,65.56-.02q.15,119.625.04,239.26c-19.41-.12-38.9.28-58.25-.2q-48.96-63.09-98.11-126.03c-1.38-1.5-2.3-3.46-3.97-4.66.19,43.63.06,87.27.07,130.9q-32.715-.015-65.42,0c-.43-11.47-.06-23.15-.18-34.7Q437.88,136.78,437.89,34.51Z" fill="#081363"></path><path id="Caminho_183" data-name="Caminho 183" d="M685.26,90.74c.03-18.75-.09-37.52.06-56.27q103.65.1,207.29.03c.04,16.06-.03,32.13.03,48.2-39.76,45.16-79.99,89.97-119.86,135.07,39.95.05,79.92-.19,119.85.12h0c-.03,18.62.01,37.23-.02,55.85q-105.735,0-211.47,0c.09-16.1-.23-32.27.16-48.33q60.015-67.23,119.79-134.68Q743.175,90.775,685.26,90.74Z" fill="#081363"></path><path id="Caminho_184" data-name="Caminho 184" d="M1193.63,34.51q49.7-.03,99.38-.01c14.34.05,28.73,0,42.89,2.6,16.97,2.91,33.81,9.42,46.58,21.26,14.38,12.72,21.98,31.74,23.02,50.68.78,12.44-.15,25.22-4.56,36.98-6.08,17.49-19.77,31.57-35.91,40.21-2.82,1.41-5.64,2.81-8.44,4.23,19.07,27.7,38,55.52,57.03,83.25-25.48.1-50.96-.01-76.44.05-16.23-24.08-32.13-48.39-48.3-72.51q-14.4-.015-28.79-.01c-.51,24.03-.07,48.36-.23,72.5-22.08-.09-44.23.2-66.27-.14q.12-119.55.04-239.09m66.25,57.5q-.03,28.74,0,57.48c17.1-.18,34.27.48,51.32-.46,10.5-1.37,21.54-6.61,25.75-16.92,3.58-9.56,2.94-21.21-3.66-29.33-6.95-8.02-18.11-10.4-28.25-10.75C1289.99,91.96,1274.93,92.01,1259.88,92.01Z" fill="#081363"></path><path id="Caminho_185" data-name="Caminho 185" d="M133.3,355.94c.69-13.69,12.07-25.81,25.75-27.14,9.17-1,19.67.96,26.13,7.89-2.66,1.9-4.01,5.19-6.49,7.3-7.41-7.46-21.15-9.03-28.69-.95-7.53,7.39-8.44,20.4-2.27,28.88,6.82,9.15,21.5,9.69,29.91,2.7-.14-3.47,0-6.94-.08-10.41-4.92-.04-9.83.01-14.75-.02-.02-2.87,0-5.74-.01-8.6q12.195-.015,24.4,0c-.02,8.02.02,16.04-.02,24.06-10.29,8.59-25.47,11.6-37.84,5.84C138.05,380.75,131.83,367.74,133.3,355.94Z" fill="#ff014c"></path><path id="Caminho_186" data-name="Caminho 186" d="M903.32,336.24c11.79-10.87,31.87-10.1,43.15,1.2-2.52,2.18-4.18,5.18-6.68,7.38-4.94-4.76-11.79-8.12-18.76-6.95-7.11.71-13.12,6.26-15.3,12.93-3.05,8.32-.82,18.7,6.2,24.38,4.9,4.2,12,5.16,18.06,3.21,4.07-1.15,7.3-4.06,10.5-6.68,2.09,2.2,4.05,4.49,6.18,6.66-10.16,11.82-29.71,13.54-41.81,3.78C890.77,371.41,890.18,347.85,903.32,336.24Z" fill="#ff014c"></path><path id="Caminho_187" data-name="Caminho 187" d="M1059.13,329.08c6.73-1.06,13.89-.58,20.02,2.55,10.98,4.94,17.61,17.42,16.34,29.26a29.4,29.4,0,0,1-8.12,18.53c-8.83,9.24-23.6,11.49-35.1,6.3a28.815,28.815,0,0,1-16.79-22.58,29.854,29.854,0,0,1,9.49-27.05c3.91-3.67,8.99-5.8,14.16-7.01m.3,9.41c-3.6,1.24-7.11,3.28-9.26,6.49-7.22,9.03-5.64,24.04,4.02,30.75,7.97,6.03,20.76,4.36,26.54-3.92,7.53-9.52,5.01-25.63-5.8-31.61A19.924,19.924,0,0,0,1059.43,338.49Z" fill="#ff014c"></path><path id="Caminho_188" data-name="Caminho 188" d="M1192.15,329.08c7.02-1.14,14.44-.47,20.76,2.89,12.36,6.05,18.45,21.44,14.66,34.47a28.73,28.73,0,0,1-12.73,17.43,32.19,32.19,0,0,1-32.29.47,29.459,29.459,0,0,1-14.26-28.48c.56-13.03,11.09-24.49,23.86-26.78m.2,9.44c-3.57,1.23-7.06,3.28-9.19,6.48-7.21,9.03-5.62,24.04,4.05,30.74,7.96,6.02,20.76,4.35,26.52-3.94,7.54-9.52,5-25.64-5.82-31.61A19.885,19.885,0,0,0,1192.35,338.52Z" fill="#ff014c"></path><path id="Caminho_189" data-name="Caminho 189" d="M1250.73,341.89c9.75-15.76,33.77-17.53,47.25-5.65a84.26,84.26,0,0,0-6.26,7.86c-6.64-6.3-17.39-8.78-25.49-3.89-10.27,6.35-12.84,21.57-6.04,31.34,6.67,9.45,21.29,10.03,30.12,3.35,0-3.57.04-7.13-.03-10.69-4.9-.03-9.8-.01-14.69-.01-.03-2.88,0-5.75-.02-8.63,8.14.03,16.28-.01,24.42.02-.04,8.01.11,16.02-.07,24.02-11.76,10.11-30.53,12.28-43.23,2.67C1244.61,372.99,1242.59,354.37,1250.73,341.89Z" fill="#ff014c"></path><path id="Caminho_190" data-name="Caminho 190" d="M.6,329.6q21.195-.045,42.39-.01c.01,3.03.04,6.06-.01,9.09-10.92.03-21.85-.06-32.77.04-.02,4.95-.04,9.9.01,14.85,9.66.04,19.32-.02,28.98.02.02,2.98-.04,5.97.03,8.95-9.63.35-19.35-.01-29.02.18-.03,5.18-.01,10.37,0,15.55,11.07.12,22.15-.01,33.23.07-.04,3.02-.02,6.05-.02,9.08-14.27-.04-28.55.06-42.83-.05Q.7,358.48.6,329.6Z" fill="#ff014c"></path><path id="Caminho_191" data-name="Caminho 191" d="M63.01,329.59c3.2.09,6.45-.21,9.63.15,9.96,13.19,20.27,26.12,30.31,39.24l.64.47c-.02-13.29.01-26.59-.02-39.88,3.29.02,6.57.02,9.86,0q-.03,28.935,0,57.86c-2.78-.04-5.56,0-8.34-.02-10.79-13.68-21.46-27.53-32.12-41.33.06,13.78.02,27.55.02,41.33-3.33.01-6.65.01-9.98,0Q63,358.505,63.01,329.59Z" fill="#ff014c"></path><path id="Caminho_192" data-name="Caminho 192" d="M208.01,329.59c14.21-.04,28.43.05,42.64-.04.07,3.04.01,6.09.03,9.13q-16.335,0-32.67.01c.03,4.97-.12,9.96.08,14.93,9.63-.08,19.27-.03,28.9-.03-.03,3.04.11,6.09-.07,9.12-9.64-.07-19.28-.02-28.91-.02-.01,5.2-.02,10.41,0,15.62q16.545.03,33.1.01c.21,2.99.01,6.06.09,9.09q-21.585.015-43.19,0Q207.98,358.505,208.01,329.59Z" fill="#ff014c"></path><path id="Caminho_193" data-name="Caminho 193" d="M270.8,329.59c3.13,0,6.27-.03,9.42.01,10.36,13.37,20.58,26.81,31.13,39.98-.06-13.34-.02-26.68-.02-40.02,3.29.05,6.58,0,9.88.03q-.03,28.9-.01,57.82c-2.96-.25-6.16.54-8.97-.41-7.31-10.05-15.24-19.64-22.69-29.56-3.07-3.6-5.62-7.66-8.9-11.07.08,13.69.03,27.38.02,41.07-3.29-.06-6.58,0-9.86-.03Q270.8,358.505,270.8,329.59Z" fill="#ff014c"></path><path id="Caminho_194" data-name="Caminho 194" d="M343.57,329.57c3.29.02,6.57.02,9.86,0-.01,8-.05,15.99.02,23.99,9.37.03,18.74.05,28.11-.01.04-7.99.02-15.99.01-23.98q4.92.03,9.86,0-.03,28.935,0,57.86-4.935-.03-9.86,0c.05-8.11-.04-16.22.05-24.33-9.39-.21-18.82-.09-28.22-.06.04,8.13-.01,16.26.03,24.39-3.29-.02-6.57-.02-9.86,0Q343.6,358.5,343.57,329.57Z" fill="#ff014c"></path><path id="Caminho_195" data-name="Caminho 195" d="M434.27,329.58c3.14.04,6.28-.06,9.42.05,8.46,19.28,17.11,38.46,25.35,57.8-3.62-.19-7.3.29-10.87-.23-1.45-4.74-3.81-9.19-5.55-13.82q-13.71.09-27.43.01c-2.14,4.61-3.93,9.41-6.1,14.02-3.45,0-6.89.04-10.33-.02,8.62-19.23,17.01-38.5,25.51-57.81m4.22,12.33c-2.9,7.65-6.68,14.99-9.56,22.68,6.67-.04,13.34.05,20.01-.05-3.3-7.49-6.58-14.91-9.78-22.43Z" fill="#ff014c"></path><path id="Caminho_196" data-name="Caminho 196" d="M486.8,329.59c8.73-.02,17.46,0,26.19-.01,5.46.01,11.14,1.39,15.37,4.99,5.01,4.46,6.68,11.92,5,18.34-1.26,6.4-6.9,11.31-13.14,12.74,5.05,7.34,10.35,14.5,15.47,21.79-3.93-.07-7.86.02-11.79-.04-4.74-6.7-9.67-13.23-14.39-19.94-4.27-.03-8.56-.17-12.81.06-.06,6.64.02,13.28-.04,19.93-3.29-.08-6.58-.01-9.86-.04q.015-28.9,0-57.82m9.9,9.36q-.045,9.765,0,19.53c6.03.06,12.18.42,18.16-.21,5.54-.44,10.02-5.87,8.85-11.42-.55-5.62-6.61-8.46-11.71-8.17C506.91,338.86,501.7,338.33,496.7,338.95Z" fill="#ff014c"></path><path id="Caminho_197" data-name="Caminho 197" d="M554.57,329.57q4.92.03,9.86,0-.03,28.935,0,57.86-4.935-.03-9.86,0Q554.6,358.5,554.57,329.57Z" fill="#ff014c"></path><path id="Caminho_198" data-name="Caminho 198" d="M608.21,329.55c3.06.08,6.12-.01,9.19.06,8.58,19.23,17.03,38.53,25.49,57.84-3.55-.08-7.1,0-10.65-.04-1.95-4.69-3.97-9.31-5.85-14.01-9.21.16-18.49-.24-27.65.19-1.81,4.59-3.89,9.08-5.75,13.65-3.4.39-7,.09-10.47.14,8.72-19.24,16.85-38.68,25.69-57.83m4.06,12.3c-2.72,7.72-7.15,15.03-9.22,22.76,6.52-.02,13.04-.09,19.56.03-2.19-5.47-4.7-10.85-6.97-16.26C614.41,346.29,614.03,343.5,612.27,341.85Z" fill="#ff014c"></path><path id="Caminho_199" data-name="Caminho 199" d="M685.01,329.59c14.22-.03,28.44.03,42.66-.03.02,3.04,0,6.08.01,9.13q-16.335-.03-32.67,0c.08,4.97-.22,10,.14,14.94,9.61-.1,19.23-.03,28.84-.04-.01,3.03.04,6.06-.02,9.1q-14.49-.03-28.96,0-.03,7.8,0,15.62c11.07.1,22.17-.15,33.22.12-.08,2.99-.02,5.99-.03,8.98q-21.6.015-43.19,0Q684.98,358.505,685.01,329.59Z" fill="#ff014c"></path><path id="Caminho_200" data-name="Caminho 200" d="M768.57,329.57q23.43.03,46.86,0c-.04,3.14,0,6.28-.02,9.42-6.14.02-12.27-.01-18.4.02q-.03,24.2-.02,48.4-5,.015-9.98,0c-.03-16.13,0-32.27-.02-48.4-6.13-.03-12.27,0-18.4-.02C768.56,335.85,768.6,332.71,768.57,329.57Z" fill="#ff014c"></path><path id="Caminho_201" data-name="Caminho 201" d="M833.8,329.59c14.21-.02,28.42.01,42.63-.02-.02,3.03-.05,6.06.02,9.09-10.9.19-21.9-.29-32.74.25-.06,4.85-.04,9.71-.01,14.57,9.64.22,19.32.06,28.97.08.02,3.04,0,6.08.01,9.12-9.59.02-19.18-.05-28.76.03a106.466,106.466,0,0,0-.03,15.57q16.5.105,33.01,0c.22,3.03.03,6.09.09,9.13q-21.6.015-43.19,0Q833.815,358.505,833.8,329.59Z" fill="#ff014c"></path><path id="Caminho_202" data-name="Caminho 202" d="M965.01,329.59c3.19.07,6.43-.19,9.61.13,10.22,13.32,20.43,26.74,30.96,39.75-.01-13.3.02-26.6-.01-39.9q4.92.03,9.86,0-.03,28.935,0,57.86c-2.79-.04-5.57,0-8.34-.02-10.76-13.7-21.53-27.48-32.07-41.36-.06,13.79,0,27.57-.03,41.36q-5,.015-9.98,0Q964.98,358.505,965.01,329.59Z" fill="#ff014c"></path><path id="Caminho_203" data-name="Caminho 203" d="M1115.57,329.57q4.92.03,9.86,0c.05,16.24-.17,32.51.11,48.73,10.13.02,20.26.05,30.4-.01.13,3.03.02,6.08.05,9.12-13.47.02-26.95-.01-40.42.02Q1115.6,358.5,1115.57,329.57Z" fill="#ff014c"></path><path id="Caminho_204" data-name="Caminho 204" d="M1321.57,329.57c3.28.02,6.56.02,9.86,0q-.03,28.935,0,57.86c-3.3-.02-6.58-.02-9.86,0Q1321.6,358.5,1321.57,329.57Z" fill="#ff014c"></path><path id="Caminho_205" data-name="Caminho 205" d="M1349.3,387.4c8.58-19.26,16.94-38.59,25.53-57.82,3.07.01,6.15-.01,9.24.01,8.72,19.17,17.05,38.55,25.57,57.85-3.53-.05-7.04-.01-10.55-.02-2.12-4.55-3.95-9.19-5.86-13.82-9.15-.42-18.46-.08-27.67-.17-1.78,4.69-4.05,9.18-5.74,13.87-3.5.26-7.03.06-10.52.1m28.53-42.48c-2.86,6.55-5.71,13.07-8.49,19.65,6.53.06,13.07-.04,19.62.05-2.2-7.7-6.51-15.09-9.34-22.7C1378.35,342.21,1378.48,344.01,1377.83,344.92Z" fill="#ff014c"></path></g><g id="_aeadad40" data-name="#aeadad40"><path id="Caminho_206" data-name="Caminho 206" d="M0,329.6H.6q.075,28.89-.01,57.77l-.59.21Z" fill="#aeadad" opacity="0.25"></path></g></g></svg>