<?xml version="1.0" standalone="no"?>
<!DOCTYPE svg PUBLIC "-//W3C//DTD SVG 20010904//EN"
 "http://www.w3.org/TR/2001/REC-SVG-20010904/DTD/svg10.dtd">
<svg version="1.0" xmlns="http://www.w3.org/2000/svg"
 width="592.000000pt" height="254.000000pt" viewBox="0 0 592.000000 254.000000"
 preserveAspectRatio="xMidYMid meet">

<g transform="translate(0.000000,254.000000) scale(0.100000,-0.100000)"
fill="#000000" stroke="none">
<path d="M0 1270 l0 -1270 2960 0 2960 0 0 1270 0 1270 -2960 0 -2960 0 0
-1270z m792 579 c68 -15 115 -39 155 -81 41 -43 55 -80 54 -151 0 -72 -29
-128 -88 -173 l-42 -32 32 -13 c41 -17 104 -74 124 -113 10 -19 17 -57 17 -96
1 -87 -31 -152 -98 -197 -80 -54 -96 -57 -428 -60 l-308 -4 0 465 0 466 265 0
c157 0 285 -5 317 -11z m1058 -99 l0 -110 -250 0 -250 0 0 -70 0 -70 225 0
225 0 0 -105 0 -105 -225 0 -225 0 0 -70 0 -70 250 0 250 0 0 -110 0 -110
-375 0 -375 0 0 465 0 465 375 0 375 0 0 -110z m498 -136 l192 -246 0 246 0
246 130 0 130 0 0 -465 0 -465 -117 1 -118 0 -195 252 -195 252 -3 -252 -2
-253 -125 0 -125 0 0 465 0 465 118 0 119 0 191 -246z m1342 152 l0 -93 -230
-259 -230 -259 218 -6 c119 -4 223 -7 230 -8 9 -1 12 -29 12 -106 l0 -105
-415 0 -415 0 0 90 0 89 234 263 233 263 -223 3 -224 2 0 110 0 110 405 0 405
0 0 -94z m1793 65 c85 -33 137 -78 172 -145 26 -52 29 -68 29 -145 -1 -58 -7
-99 -18 -125 -22 -49 -98 -130 -137 -146 -16 -7 -28 -18 -26 -24 3 -6 50 -78
106 -159 55 -81 101 -150 101 -152 0 -3 -66 -5 -147 -4 l-148 1 -90 136 -90
137 -57 3 -58 3 0 -141 0 -140 -130 0 -130 0 0 466 0 466 283 -4 c265 -4 286
-5 340 -27z m-5105 -1138 c-3 -15 -16 -19 -66 -21 -58 -3 -62 -4 -62 -27 0
-24 3 -25 55 -25 48 0 55 -2 55 -20 0 -18 -7 -20 -55 -20 -54 0 -55 0 -55 -30
0 -29 0 -29 68 -33 63 -3 62 -3 -20 -5 l-88 -2 0 100 0 100 86 0 c76 0 85 -2
82 -17z m172 -55 l55 -73 3 73 c3 64 5 72 22 72 19 0 20 -7 20 -100 0 -99 0
-100 -24 -100 -18 0 -37 16 -73 61 l-48 62 -3 -62 c-3 -53 -6 -61 -22 -61 -19
0 -20 7 -20 100 0 89 2 100 18 100 10 0 40 -30 72 -72z m366 58 c14 -11 16
-18 7 -26 -8 -9 -20 -9 -48 1 -31 11 -40 11 -63 -1 -53 -30 -51 -132 3 -146
44 -11 80 -1 83 24 3 18 -1 22 -22 22 -19 0 -26 5 -26 20 0 17 7 20 45 20 l45
0 0 -50 0 -50 -89 0 c-106 0 -116 7 -116 87 0 49 3 58 33 84 26 23 41 29 80
29 27 0 57 -6 68 -14z m272 -3 c-3 -15 -16 -19 -66 -21 -58 -3 -62 -4 -62 -27
0 -24 3 -25 55 -25 48 0 55 -2 55 -20 0 -18 -7 -20 -55 -20 -54 0 -55 0 -55
-30 0 -29 0 -29 68 -33 63 -3 62 -3 -20 -5 l-88 -2 0 100 0 100 86 0 c76 0 85
-2 82 -17z m172 -56 l55 -72 3 73 c3 64 5 72 22 72 19 0 20 -7 20 -100 0 -100
0 -100 -25 -100 -19 0 -38 16 -77 67 l-53 67 -3 -67 c-2 -51 -6 -67 -17 -67
-12 0 -15 19 -15 100 0 89 2 100 18 100 9 -1 41 -33 72 -73z m230 28 l0 -45
55 0 55 0 0 45 c0 38 3 45 20 45 19 0 20 -7 20 -100 0 -93 -1 -100 -20 -100
-16 0 -20 7 -20 35 l0 35 -55 0 -55 0 0 -35 c0 -28 -4 -35 -20 -35 -19 0 -20
7 -20 100 0 93 1 100 20 100 17 0 20 -7 20 -45z m391 -49 c22 -49 39 -93 39
-98 0 -4 -9 -8 -20 -8 -11 0 -20 7 -20 15 0 12 -13 15 -55 15 -40 0 -57 -4
-61 -15 -6 -14 -44 -22 -44 -9 0 3 19 48 42 100 54 123 66 123 119 0z m283 73
c34 -27 35 -72 1 -103 l-25 -23 21 -27 20 -26 -25 0 c-16 0 -32 9 -42 25 -10
15 -26 25 -40 25 -19 0 -24 -5 -24 -25 0 -18 -5 -25 -20 -25 -19 0 -20 7 -20
100 l0 100 64 0 c49 0 69 -5 90 -21z m146 -79 c0 -93 -1 -100 -20 -100 -19 0
-20 7 -20 100 0 93 1 100 20 100 19 0 20 -7 20 -100z m244 14 c21 -48 40 -93
43 -100 3 -9 -2 -14 -15 -14 -11 0 -22 7 -26 15 -4 11 -21 15 -60 15 -39 0
-55 -4 -60 -15 -3 -8 -14 -15 -25 -15 -19 0 -19 2 6 58 14 31 34 76 44 100 29
67 49 58 93 -44z m394 69 c-3 -15 -16 -19 -66 -21 -58 -3 -62 -4 -62 -27 0
-24 3 -25 55 -25 48 0 55 -2 55 -20 0 -18 -7 -20 -55 -20 -54 0 -55 0 -55 -30
0 -29 0 -29 68 -33 63 -3 62 -3 -20 -5 l-88 -2 0 100 0 100 86 0 c76 0 85 -2
82 -17z m340 0 c-2 -12 -14 -19 -36 -21 l-32 -3 0 -80 c0 -72 -2 -79 -20 -79
-18 0 -20 7 -20 80 l0 80 -34 0 c-36 0 -52 12 -41 30 3 6 47 10 96 10 81 0 90
-2 87 -17z m240 0 c-3 -15 -16 -19 -66 -21 -58 -3 -62 -4 -62 -27 0 -24 3 -25
55 -25 48 0 55 -2 55 -20 0 -18 -7 -20 -55 -20 -54 0 -55 0 -55 -30 0 -29 0
-29 68 -33 63 -3 62 -3 -20 -5 l-88 -2 0 100 0 100 86 0 c76 0 85 -2 82 -17z
m247 3 c11 -8 16 -19 12 -30 -6 -15 -9 -15 -36 -1 -41 20 -55 19 -87 -9 -22
-18 -28 -32 -27 -60 1 -50 27 -76 73 -76 20 0 41 5 47 11 12 12 33 4 33 -12 0
-5 -38 -9 -84 -9 l-84 0 -17 36 c-27 57 -3 133 49 154 33 13 100 11 121 -4z
m191 -63 l59 -76 3 76 c3 69 5 77 22 77 19 0 20 -7 20 -100 l0 -100 -29 0
c-25 0 -37 11 -78 66 l-48 66 -3 -66 c-3 -58 -5 -66 -22 -66 -19 0 -20 7 -20
100 0 91 2 100 19 100 12 0 41 -29 77 -77z m374 48 c38 -37 47 -75 29 -125
l-14 -41 -90 0 -90 0 -19 38 c-16 34 -17 44 -7 78 24 79 134 108 191 50z m160
-66 l0 -94 58 -4 c51 -3 49 -3 -20 -5 l-78 -2 0 100 c0 93 1 100 20 100 19 0
20 -7 20 -95z m353 75 c48 -38 58 -120 20 -162 -13 -14 -33 -18 -98 -18 l-83
0 -16 34 c-9 19 -16 44 -16 56 0 29 26 76 52 94 33 23 109 21 141 -4z m293 6
c26 -20 6 -43 -24 -27 -31 16 -56 13 -86 -10 -33 -26 -37 -88 -6 -119 33 -33
110 -25 110 11 0 14 -7 19 -30 19 -24 0 -30 4 -30 21 0 18 5 20 48 17 l47 -3
0 -45 0 -45 -87 -3 c-85 -3 -87 -2 -105 24 -34 52 -15 131 39 161 31 17 100
16 124 -1z m154 -86 c0 -93 -1 -100 -20 -100 -19 0 -20 7 -20 100 0 93 1 100
20 100 19 0 20 -7 20 -100z m247 0 c36 -81 40 -96 26 -99 -9 -2 -22 4 -28 13
-16 22 -110 23 -119 1 -3 -8 -14 -15 -25 -15 -24 0 -24 0 33 123 27 59 40 78
53 75 11 -2 33 -39 60 -98z"/>
<path d="M470 1570 l0 -80 105 0 c118 0 161 14 171 55 10 39 -4 73 -36 90 -20
11 -60 15 -135 15 l-105 0 0 -80z"/>
<path d="M470 1220 l0 -92 123 4 c69 3 134 10 149 18 54 26 60 105 10 138 -19
12 -56 17 -154 20 l-128 4 0 -92z"/>
<path d="M5120 1525 l0 -115 100 0 c150 0 205 31 205 116 0 83 -57 113 -222
114 l-83 0 0 -115z"/>
<path d="M1901 619 c-16 -46 -15 -49 24 -49 19 0 35 2 35 5 0 11 -34 75 -41
75 -4 0 -12 -14 -18 -31z"/>
<path d="M2150 635 c0 -35 0 -35 45 -35 39 0 45 3 51 24 9 36 -2 46 -52 46
-44 0 -44 0 -44 -35z"/>
<path d="M2580 623 c-8 -21 -16 -41 -18 -45 -2 -5 12 -8 32 -8 20 0 36 4 36 9
0 10 -29 81 -33 81 -2 0 -9 -17 -17 -37z"/>
<path d="M4316 659 c-33 -26 -37 -88 -6 -119 30 -30 83 -27 109 6 34 43 21
102 -26 123 -34 16 -47 14 -77 -10z"/>
<path d="M4843 668 c-44 -21 -52 -88 -15 -130 22 -25 84 -24 107 2 29 32 25
88 -9 116 -29 26 -49 29 -83 12z"/>
<path d="M5567 621 c-10 -23 -17 -44 -17 -46 0 -3 16 -5 36 -5 32 0 35 2 28
23 -3 12 -12 33 -19 46 -12 23 -12 23 -28 -18z"/>
</g>
</svg>
