<svg width="622" height="496" viewBox="0 0 622 496" fill="none" xmlns="http://www.w3.org/2000/svg">
<path d="M593.278 3.17929C584.997 9.61191 584.332 9.9816 579.895 10.0555C577.307 10.1295 575.015 10.647 573.98 11.3864C572.058 12.7173 573.315 13.013 575.459 11.6822C576.79 10.8688 579.23 11.2385 579.23 12.3476C579.23 12.7173 578.047 13.6045 576.642 14.3439C574.276 15.6748 573.98 15.6748 572.206 14.4918C570.801 13.6045 569.988 13.4567 569.026 13.9742C567.991 14.5657 567.991 14.7875 568.879 14.7875C569.47 14.7875 570.579 15.3051 571.319 15.8227C572.576 16.7839 572.502 16.9317 570.283 18.0408C567.843 19.2978 565.995 18.7062 567.03 17.0057C567.4 16.4142 567.77 16.4142 568.583 17.0796C569.322 17.7451 569.618 17.7451 569.618 17.0796C569.618 15.5269 567.4 15.3051 565.921 16.636C564.738 17.6711 564.664 18.1887 565.33 19.002C565.921 19.7414 565.921 20.2589 565.33 20.8504C564.221 21.9595 562.742 20.7765 563.185 19.1499C563.481 18.0408 563.333 17.8929 562.224 18.4844C560.45 19.4456 559.636 20.7026 560.745 20.7026C561.263 20.7026 561.485 21.1462 561.337 21.5898C561.115 22.1074 560.376 22.551 559.636 22.551C558.379 22.551 558.084 23.6601 556.901 32.1629C555.644 41.8488 554.904 47.2462 552.982 59.5199C552.464 63.1429 552.169 66.3961 552.317 66.6919C552.834 67.5052 550.098 67.4313 549.211 66.618C548.841 66.2483 545.884 64.4738 542.631 62.6253C539.377 60.8508 531.984 56.6364 526.216 53.3831C519.414 49.4644 515.274 47.542 514.46 47.8378C513.795 48.0596 510.172 50.0559 506.475 52.2001C502.778 54.4182 496.641 57.8933 492.871 60.0375C485.403 64.252 480.153 68.3185 480.153 69.8712C480.153 70.7585 486.882 76.1559 515.643 98.3373C521.115 102.552 528.878 108.615 532.797 111.72C536.716 114.899 542.705 118.966 546.106 120.888C557.122 127.099 558.527 127.986 558.527 129.095C558.527 130.87 553.647 130.426 552.317 128.504C550.542 125.99 550.098 127.469 551.133 132.349C552.021 136.563 552.021 136.859 550.542 138.042C549.655 138.781 546.549 141.369 543.666 143.809C540.708 146.249 537.085 149.428 535.607 150.833C534.054 152.238 531.614 154.382 530.061 155.639C528.582 156.822 526.143 158.966 524.664 160.297C523.185 161.628 520.523 163.772 518.823 165.103C515.126 167.913 514.904 168.578 517.714 168.652C519.71 168.652 519.71 168.652 518.009 169.392C517.048 169.761 515.939 169.909 515.569 169.687C515.2 169.466 514.165 169.687 513.277 170.131C511.725 170.944 503.222 178.042 499.747 181.296C498.933 182.109 495.976 184.549 493.092 186.841C490.283 189.059 487.621 191.277 487.177 191.795C486.808 192.238 485.181 193.643 483.702 194.752C482.15 195.935 481.114 197.118 481.336 197.488C481.558 197.858 481.41 198.153 480.967 198.153C480.079 198.153 473.721 202.368 473.351 203.181C473.203 203.477 469.21 207.026 464.478 211.019C456.049 218.117 454.201 220.187 457.159 219.226C457.972 219.004 458.785 219.152 459.081 219.595C459.598 220.409 458.785 220.557 455.532 220.335C453.462 220.187 450.06 222.553 444.145 228.098C442.815 229.281 440.744 231.13 439.413 232.165C438.083 233.2 436.012 234.974 434.755 236.157C433.498 237.34 431.724 238.745 430.837 239.337C428.545 240.816 428.692 242.072 430.985 241.481C432.094 241.185 432.833 241.333 432.833 241.777C432.833 242.22 431.724 242.516 430.319 242.368C427.805 242.22 425.587 243.329 422.26 246.361C421.225 247.322 417.75 250.354 414.422 253.163C411.169 255.973 408.434 258.561 408.434 258.93C408.434 259.226 408.064 259.522 407.546 259.522C407.103 259.522 404.219 261.518 401.262 264.032L395.79 268.468L390.836 265.807C388.101 264.328 385.513 262.701 385.143 262.11C384.699 261.592 380.559 258.93 375.901 256.121C371.243 253.385 367.25 251.019 367.028 250.871C366.88 250.723 368.285 247.618 370.208 243.995C372.13 240.372 373.683 237.267 373.683 237.119C373.683 236.971 371.539 236.231 368.951 235.566C363.849 234.161 360.448 234.235 348.84 235.862L342.185 236.897L334.052 232.017C329.616 229.355 324.514 226.398 322.666 225.363C320.817 224.327 312.832 219.743 304.921 215.159C297.009 210.575 288.654 205.695 286.436 204.438C284.218 203.107 277.194 199.189 270.909 195.566C264.624 192.017 258.266 188.32 256.787 187.358C254.421 185.732 243.996 181.074 231.796 176.194C227.212 174.345 226.546 174.271 217.822 174.789L208.653 175.233L195.566 169.983C182.036 164.586 167.396 158.597 164.808 157.488C163.256 156.822 147.063 150.242 130.058 143.439C124.808 141.295 119.78 139.299 118.967 138.929C115.048 137.155 100.852 131.388 97.8946 130.352C96.0462 129.761 94.2717 128.948 93.828 128.652C93.4583 128.356 90.5748 127.173 87.5433 126.064C82.5895 124.216 71.7946 119.853 65.7317 117.191C64.5486 116.674 62.2566 115.787 60.7778 115.269C59.2251 114.751 57.9682 114.086 57.9682 113.79C57.9682 113.051 62.8481 112.385 68.1716 112.385C71.203 112.385 72.7557 112.09 72.6079 111.572C72.46 111.129 67.8758 108.91 62.4044 106.692C52.6447 102.7 52.3489 102.626 47.2472 103.143C40.5188 103.735 29.1324 106.249 23.9568 108.171C16.6369 110.907 8.13408 117.265 3.25418 123.772C-2.06934 130.87 -2.88266 129.687 16.7109 142.848C34.7517 154.974 49.3914 164.881 71.6467 180.039C78.9665 184.992 91.0923 193.2 98.634 198.227C106.176 203.181 115.492 209.54 119.337 212.202C137.008 224.549 152.683 235.048 157.415 237.858C160.298 239.485 172.572 246.657 184.772 253.681C196.971 260.705 208.801 267.507 211.02 268.764C213.238 270.095 224.254 276.38 235.419 282.812C246.584 289.171 256.122 294.79 256.565 295.16C257.231 295.603 257.231 296.786 256.417 299.67C254.495 306.842 255.456 311.944 259.227 314.532C261.149 315.862 265.142 316.084 267.36 314.901C269.504 313.718 269.8 314.532 268.395 317.933C267.73 319.559 267.212 322.591 267.212 324.661C267.212 327.471 266.917 328.432 265.955 328.802C265.216 329.097 263.737 330.132 262.702 331.168C260.04 333.829 254.717 337.452 254.199 336.935C253.977 336.713 254.199 335.826 254.643 334.938C255.308 333.681 255.308 333.09 254.643 332.424C253.756 331.537 252.942 332.424 247.841 340.04C246.288 342.332 244.735 344.55 244.365 344.994C242.665 347.064 241.26 350.761 240.669 354.68C240.373 357.046 239.929 359.486 239.781 360.077C239.559 360.817 239.929 361.112 240.816 360.965C241.852 360.817 242.147 361.112 241.926 362.074C241.704 362.961 241.038 363.331 239.707 363.257C238.376 363.183 237.859 363.478 238.081 364.07C238.303 364.587 236.824 369.985 234.754 376.048C232.757 382.111 230.983 387.73 230.835 388.543C230.317 391.575 232.831 389.874 236.676 384.477C242.221 376.713 244.292 372.425 244.292 369.024C244.292 364.07 245.844 362.295 247.988 364.883C249.393 366.584 250.872 366.214 257.231 362.591L263.146 359.19L266.325 360.743C268.321 361.704 270.17 362.148 271.279 361.852C273.127 361.408 273.127 361.408 272.684 365.697C271.575 377.453 271.205 385.66 271.722 386.251C272.092 386.621 272.536 386.325 272.832 385.512C273.423 383.885 276.085 381.593 277.416 381.519C279.264 381.519 278.155 384.255 274.68 387.952C272.166 390.54 270.835 391.501 270.318 390.983C269.135 389.8 268.321 396.455 269.356 398.451C269.874 399.264 271.501 400.595 273.053 401.335C275.789 402.665 275.937 402.665 278.525 401.409C280.004 400.595 281.408 399.708 281.63 399.264C282.296 398.229 281.482 398.377 279.412 399.708C277.194 401.187 274.31 400.817 274.015 398.969C273.793 397.933 274.015 397.712 274.902 398.007C275.567 398.303 277.933 397.933 280.151 397.194C283.626 396.085 284.366 395.567 285.327 393.127C286.584 389.948 286.732 386.473 285.697 384.551C285.031 383.22 286.806 358.007 287.619 357.12C287.841 356.898 289.615 357.637 291.612 358.746C293.534 359.855 295.383 360.521 295.604 360.299C295.826 360.003 296.048 354.68 296.048 348.321C296.048 335.086 296.639 332.646 301.372 326.214C304.477 321.925 316.529 308.912 317.86 308.395C318.303 308.247 320.078 306.842 321.926 305.363C328.359 300.114 343.738 290.724 344.551 291.537C344.773 291.685 342.111 293.681 338.784 295.973C331.686 300.705 320.669 311.352 317.12 316.824C314.828 320.447 311.353 327.619 311.723 327.914C311.871 327.988 314.385 329.467 317.342 331.242C320.3 332.942 322.887 334.643 323.035 335.012C323.257 335.308 323.257 336.491 322.961 337.526C322.666 338.857 322.148 339.301 321.261 339.005C320.447 338.783 319.338 339.375 318.303 340.558C317.046 342.036 316.085 342.406 314.532 342.184C312.019 341.815 311.649 342.406 311.945 346.842C312.166 349.652 311.945 350.317 310.614 350.835C309.8 351.279 308.987 352.018 308.765 352.462C308.396 353.793 311.205 353.645 312.314 352.314C312.832 351.722 313.793 351.205 314.532 351.205C316.233 351.205 320.447 349.061 320.447 348.173C320.447 346.695 321.926 347.582 322.37 349.356C322.666 350.539 324.07 351.944 326.141 353.201L329.394 355.123L333.682 353.793L337.897 352.536L342.259 355.123C345.956 357.268 347.065 358.377 348.766 361.852C350.614 365.77 352.463 367.545 353.498 366.436C353.719 366.214 353.424 365.401 352.832 364.735C352.167 363.996 350.688 361.63 349.579 359.412C348.396 357.268 346.843 354.384 346.178 353.127C345.512 351.87 344.921 350.317 344.847 349.652C344.847 347.804 346.769 347.434 348.248 349.061C348.914 349.8 349.801 350.465 350.097 350.465C350.466 350.465 353.276 351.944 356.381 353.793C359.413 355.641 362.296 357.12 362.74 357.12C363.11 357.12 364.958 358.007 366.733 359.042L370.06 361.038L368.359 362.961C365.254 366.51 363.405 368.063 363.036 367.619C362.148 366.732 360.522 370.059 360.522 372.869C360.448 376.048 362.148 378.266 365.254 379.005C367.768 379.671 372.352 378.488 372.795 377.231C373.017 376.418 372.795 376.344 371.612 377.009C369.69 378.044 366.511 378.044 365.919 377.083C365.697 376.639 365.993 376.344 366.659 376.344C368.729 376.344 372.204 373.904 373.831 371.316C375.975 367.767 376.788 368.432 375.088 372.351C374.274 374.273 373.831 375.974 373.978 376.122C374.496 376.713 378.119 369.172 378.119 367.471C378.119 365.623 378.637 365.623 381.816 367.619C384.995 369.541 435.273 398.525 441.336 401.926C445.55 404.366 465.735 414.348 485.329 423.812C490.431 426.326 509.063 435.494 526.734 444.219C544.405 452.943 568.213 464.625 579.6 470.245C590.986 475.79 607.031 483.775 615.164 487.842L630.099 495.31L634.018 492.426C639.563 488.433 648.066 482.592 649.841 481.631C663.667 473.942 673.131 469.653 679.046 468.47C681.338 468.027 683.113 467.287 683.113 466.77C683.113 465.513 668.029 453.313 665.737 452.721C664.702 452.5 660.414 452.795 656.125 453.387C648.436 454.496 648.362 454.496 646.365 452.943C642.447 449.912 609.175 422.333 607.696 420.928C606.439 419.819 596.975 412.056 589.285 405.919C588.029 404.958 582.113 400.078 576.198 395.198C570.283 390.318 563.999 385.142 562.224 383.737C554.165 377.231 544.109 368.728 543.888 368.21C543.518 367.249 557.862 365.992 559.415 366.806C561.263 367.767 562.224 366.953 560.745 365.77C560.08 365.253 556.457 362.369 552.612 359.264C545.292 353.423 541.078 350.687 527.843 343.441C526.216 342.48 514.386 335.678 501.595 328.284C480.449 316.01 450.726 298.857 438.97 292.128C436.382 290.65 434.312 289.171 434.312 288.801C434.312 288.431 435.79 285.4 437.639 281.999C441.484 274.975 441.558 275.049 434.164 273.644C429.802 272.905 422.851 273.348 412.722 275.123C408.286 275.936 407.546 275.862 406.363 274.827C405.624 274.088 404.663 273.57 404.219 273.57C403.775 273.57 403.036 273.126 402.592 272.609C401.779 271.574 407.842 265.88 421.373 254.716C423.813 252.72 428.323 248.875 431.354 246.213C434.386 243.477 446.216 233.57 457.602 224.106C468.989 214.568 478.674 206.434 479.044 205.991C479.488 205.547 481.484 203.847 483.48 202.22C485.551 200.593 487.991 198.523 489.026 197.636C490.061 196.749 492.575 194.604 494.571 192.756C496.641 190.981 505.44 183.588 514.165 176.342C522.889 169.096 530.727 162.589 531.54 161.776C533.462 160.001 537.455 156.674 541.3 153.643C543 152.312 546.919 149.133 549.951 146.545C554.683 142.626 555.792 142.035 556.975 142.7C557.788 143.07 558.749 143.439 559.119 143.439C559.415 143.439 562.372 141.221 565.477 138.486C570.801 133.975 571.392 133.606 573.241 134.345C574.276 134.789 577.825 136.267 581.078 137.672C602.299 146.841 608.805 149.65 611.393 150.833C613.02 151.573 619.378 154.234 625.441 156.748C631.578 159.336 636.828 161.702 637.271 162.072C639.859 164.364 649.027 160.519 662.04 151.646C670.247 146.027 672.392 144.105 672.392 142.182C672.392 140.704 672.687 140.482 673.944 140.852C675.053 141.221 676.532 140.482 679.638 138.116C681.93 136.341 684.739 134.271 685.922 133.606C687.992 132.275 688.584 130.87 686.957 130.87C686.44 130.87 684.813 131.683 683.334 132.718C681.856 133.754 680.007 134.567 679.268 134.567C678.528 134.567 676.976 135.454 675.867 136.489C674.462 137.746 673.353 138.19 672.318 137.894C671.504 137.598 666.55 134.789 661.227 131.535C655.977 128.356 651.467 125.694 651.319 125.694C650.95 125.694 642.225 120.593 619.156 106.84C610.801 101.886 601.263 96.267 597.936 94.3447C594.535 92.4223 591.799 90.426 591.799 89.9084C591.799 89.4648 593.5 86.7291 595.496 83.9194L599.193 78.8177V39.4088C599.193 8.35495 598.971 -3.05176e-05 598.306 -3.05176e-05C597.788 -3.05176e-05 595.496 1.40479 593.278 3.17929ZM670.173 141.221C670.173 141.591 669.804 141.961 669.36 141.961C668.99 141.961 668.843 141.591 669.064 141.221C669.286 140.778 669.656 140.482 669.878 140.482C670.026 140.482 670.173 140.778 670.173 141.221ZM540.043 150.833C540.043 151.203 539.525 151.573 538.934 151.573C538.342 151.573 537.825 151.203 537.825 150.833C537.825 150.39 538.342 150.094 538.934 150.094C539.525 150.094 540.043 150.39 540.043 150.833ZM514.534 172.275C514.756 172.645 514.46 173.015 513.795 173.015C513.129 173.015 512.834 172.645 513.056 172.275C513.277 171.832 513.647 171.536 513.795 171.536C513.943 171.536 514.312 171.832 514.534 172.275ZM504.331 180.852C504.109 181.074 503.444 181.148 502.926 180.926C502.335 180.704 502.556 180.482 503.37 180.482C504.183 180.408 504.627 180.63 504.331 180.852ZM498.638 186.323C498.638 187.211 498.046 187.211 496.05 186.323C494.719 185.732 494.793 185.658 496.641 185.658C497.75 185.584 498.638 185.88 498.638 186.323ZM493.462 190.02C493.462 190.39 493.166 190.76 492.723 190.76C492.353 190.76 491.983 190.39 491.983 190.02C491.983 189.577 492.353 189.281 492.723 189.281C493.166 189.281 493.462 189.577 493.462 190.02ZM485.033 198.671C484.294 199.41 483.628 198.301 484.294 197.34C484.737 196.527 484.885 196.527 485.181 197.34C485.329 197.858 485.255 198.449 485.033 198.671ZM479.044 202.59C478.822 202.959 477.861 203.329 476.974 203.255C475.421 203.255 475.421 203.181 476.826 202.59C478.896 201.702 479.562 201.702 479.044 202.59ZM472.759 207.396C472.759 208.061 472.094 208.505 471.133 208.505C469.58 208.505 469.58 208.505 470.985 207.396C472.759 206.065 472.759 206.065 472.759 207.396ZM270.466 211.906C272.314 212.941 273.867 214.124 273.867 214.494C273.867 214.863 269.8 215.159 264.846 215.233C259.818 215.233 252.129 215.529 247.619 215.898C239.781 216.564 225.511 218.93 224.698 219.743C224.476 219.891 227.286 221.887 230.983 224.106C234.606 226.25 237.637 228.32 237.637 228.616C237.637 228.912 236.454 229.947 234.901 230.982C232.388 232.756 232.166 232.756 229.948 231.647C227.656 230.464 210.132 220.335 209.689 219.965C209.245 219.595 216.343 215.898 219.005 215.159C228.321 212.497 243.035 210.797 262.85 210.131C266.177 209.983 267.73 210.427 270.466 211.906ZM464.109 215.159C463.887 215.972 463.591 216.638 463.443 216.638C463.295 216.638 463.147 215.972 463.147 215.159C463.147 214.346 463.443 213.68 463.813 213.68C464.183 213.68 464.331 214.346 464.109 215.159ZM284.292 221.37C287.028 221.961 290.872 223.292 292.795 224.253C296.344 226.102 300.484 229.577 300.484 230.76C300.484 231.869 297.157 233.644 293.756 234.309C287.397 235.714 283.774 236.749 276.824 239.337C272.979 240.816 268.173 242.59 266.103 243.329C261.519 245.03 253.386 245.178 249.689 243.625C248.21 242.96 245.844 241.629 244.513 240.594C242.295 238.893 241.999 238.376 242.221 235.64C242.443 233.052 242.887 232.239 245.475 230.316C250.133 226.693 269.948 220.63 277.564 220.409C278.599 220.409 281.63 220.852 284.292 221.37ZM317.12 238.523C321.409 240.963 320.965 241.333 310.983 243.329C307.065 244.143 302.628 245.178 301.224 245.621C294.273 247.84 287.619 250.501 287.397 251.093C287.249 251.463 288.358 252.424 289.763 253.163C292.869 254.864 292.943 255.381 290.503 257.008C288.728 258.117 288.432 258.117 284.809 256.564C281.63 255.159 280.077 255.012 276.233 255.307C271.87 255.751 267.952 254.938 267.952 253.533C267.952 251.98 280.004 245.474 287.545 243.108C290.946 241.999 310.688 237.045 313.128 236.675C313.423 236.601 315.198 237.488 317.12 238.523ZM417.084 253.311C416.862 253.533 416.197 253.607 415.679 253.385C415.088 253.163 415.31 252.941 416.123 252.941C416.936 252.867 417.38 253.089 417.084 253.311ZM411.761 258.782C411.983 259.152 411.687 259.522 411.021 259.522C410.356 259.522 410.06 259.152 410.282 258.782C410.504 258.339 410.873 258.043 411.021 258.043C411.169 258.043 411.539 258.339 411.761 258.782ZM399.561 269.134C399.561 269.503 399.413 269.873 399.265 269.873C399.043 269.873 398.674 269.503 398.452 269.134C398.23 268.69 398.378 268.394 398.748 268.394C399.191 268.394 399.561 268.69 399.561 269.134ZM438.748 301.888C438.748 303.589 438.896 303.663 444.663 303.293C447.842 303.145 451.096 303.219 451.835 303.441C453.092 303.958 453.092 304.032 451.835 304.994C450.652 305.807 451.096 306.029 455.162 306.472C460.929 307.064 464.774 308.247 464.183 309.134C463.961 309.578 462.852 309.726 461.817 309.504C459.377 308.986 453.462 309.947 453.314 310.835C453.092 311.944 461.595 314.236 465.957 314.236C469.876 314.236 471.133 315.197 468.175 316.01C466.549 316.38 466.549 316.454 467.953 317.563C469.358 318.598 469.284 318.598 466.844 318.155C465.44 317.933 463.517 317.193 462.63 316.676C461.743 316.084 459.746 315.493 458.194 315.345C456.641 315.197 454.053 314.901 452.427 314.605C449.987 314.162 449.617 314.236 450.43 315.049C451.983 316.75 457.232 317.933 458.785 316.971C459.894 316.306 460.412 316.528 461.964 318.155C463 319.264 464.331 320.151 464.996 320.151C465.587 320.151 466.105 320.521 466.105 320.89C466.105 322.295 463.961 322.517 462.26 321.334C460.116 319.855 452.057 319.633 452.057 321.112C452.057 322.665 456.493 326.583 460.56 328.654C464.035 330.354 473.425 333.534 478.157 334.569C481.854 335.308 479.488 336.417 474.016 336.417C467.288 336.417 457.085 338.266 454.645 339.818C453.683 340.484 452.648 341.667 452.353 342.48C451.983 343.663 451.539 343.811 449.987 343.441C446.216 342.554 438.896 338.561 435.569 335.678C432.537 333.016 431.872 332.72 428.249 332.72C426.105 332.72 422.482 333.238 420.264 333.903C418.045 334.495 411.391 335.308 405.476 335.678C388.101 336.713 374.57 340.262 369.468 345.216C367.176 347.36 366.141 347.212 366.733 344.698C368.063 338.931 373.831 332.646 379.228 331.094C382.999 329.985 384.182 329.023 381.668 329.023C380.559 329.023 379.45 329.393 379.228 329.763C378.932 330.206 378.415 330.354 378.045 330.059C376.936 329.393 378.415 327.988 381.816 326.436C383.443 325.696 384.552 324.809 384.256 324.513C383.516 323.848 374.718 325.474 372.426 326.657C369.173 328.432 369.099 327.175 372.204 322.739C374.792 319.042 379.08 316.232 384.256 314.901C386.178 314.458 387.731 313.718 387.731 313.349C387.731 312.905 386.918 312.831 385.956 313.053C383.516 313.644 382.851 312.313 384.921 311.13C386.474 310.317 395.568 309.726 409.543 309.578C413.461 309.504 421.52 311.352 427.879 313.644C430.541 314.679 430.911 314.236 429.506 311.574C427.288 307.286 428.692 303.145 433.129 301.223C436.752 299.67 438.748 299.892 438.748 301.888ZM288.802 344.476L288.58 353.423L284.662 355.271C282.517 356.306 280.521 357.12 280.225 357.12C279.93 357.12 279.856 353.423 280.004 348.839L280.299 340.558L284.292 337.822C286.51 336.343 288.432 335.16 288.654 335.308C288.876 335.456 288.95 339.523 288.802 344.476ZM253.164 344.107C253.164 345.29 251.39 346.916 250.724 346.325C250.133 345.659 251.759 342.332 252.499 342.776C252.868 342.998 253.164 343.589 253.164 344.107ZM265.733 351.279C265.733 351.648 265.438 351.944 264.994 351.944C264.624 351.944 264.255 351.427 264.255 350.761C264.255 350.17 264.624 349.874 264.994 350.096C265.438 350.317 265.733 350.835 265.733 351.279ZM343.22 351.279C343.072 351.722 342.629 352.018 342.259 352.018C341.889 352.018 341.446 351.722 341.298 351.279C341.15 350.835 341.594 350.465 342.259 350.465C342.925 350.465 343.368 350.835 343.22 351.279ZM250.946 353.349C250.946 353.793 250.65 354.236 250.28 354.458C249.911 354.68 249.763 355.641 249.985 356.602C250.354 358.155 250.28 358.155 249.097 357.046C248.284 356.232 247.988 355.271 248.358 354.236C248.802 352.683 250.946 352.018 250.946 353.349ZM372.574 363.774C372.795 364.144 372.648 364.514 372.278 364.514C371.834 364.514 371.465 364.144 371.465 363.774C371.465 363.331 371.612 363.035 371.76 363.035C371.982 363.035 372.352 363.331 372.574 363.774ZM371.095 367.841C370.282 368.432 369.246 369.246 368.729 369.689C367.398 370.798 367.102 370.576 367.546 368.95C368.063 366.88 370.799 365.031 371.834 366.066C372.352 366.584 372.13 367.175 371.095 367.841ZM278.303 390.318C278.303 390.688 277.785 391.353 277.194 391.871C276.233 392.61 276.085 392.536 276.085 391.205C276.085 390.318 276.528 389.652 277.194 389.652C277.785 389.652 278.303 389.948 278.303 390.318ZM664.628 470.245C664.85 470.614 664.702 470.984 664.332 470.984C663.889 470.984 663.519 470.614 663.519 470.245C663.519 469.801 663.667 469.505 663.815 469.505C664.037 469.505 664.406 469.801 664.628 470.245ZM662.04 470.984C662.04 471.354 661.745 471.723 661.301 471.723C660.931 471.723 660.562 471.354 660.562 470.984C660.562 470.54 660.931 470.245 661.301 470.245C661.745 470.245 662.04 470.54 662.04 470.984ZM643.186 479.043C642.964 479.487 642.373 479.857 641.929 479.857C641.486 479.857 641.486 479.413 642.077 478.747C643.112 477.491 643.999 477.786 643.186 479.043ZM640.598 481.261C640.598 481.705 640.303 482.223 639.859 482.444C639.489 482.666 639.12 482.37 639.12 481.779C639.12 481.114 639.489 480.596 639.859 480.596C640.303 480.596 640.598 480.892 640.598 481.261Z" fill="#0E0E0E"/>
<path d="M433.351 304.476C431.059 306.99 432.242 313.053 435.347 315.641C436.382 316.528 436.53 316.306 436.53 314.014C436.53 312.609 437.047 311.056 437.713 310.465C438.822 309.504 446.881 308.469 446.881 309.282C446.881 309.578 446.216 311.056 445.329 312.683C443.998 315.271 443.924 316.01 444.663 318.302C445.92 322.073 447.251 322.591 446.512 318.968C446.216 317.415 445.994 315.271 445.994 314.236C446.142 312.313 448.508 309.8 450.208 309.8C450.726 309.8 451.613 309.282 452.131 308.617C453.092 307.434 452.796 307.434 448.878 307.877C444.885 308.395 444.663 308.321 444.663 306.842C444.663 305.437 444.367 305.289 442.667 305.733C441.484 305.955 440.005 306.768 439.266 307.36C437.861 308.69 437.935 308.764 436.012 305.511C434.608 303.219 434.46 303.219 433.351 304.476Z" fill="#0E0E0E"/>
<path d="M406.585 311.278C406.881 311.722 407.399 311.87 407.768 311.648C408.803 310.982 408.582 310.539 407.251 310.539C406.659 310.539 406.364 310.909 406.585 311.278Z" fill="#0E0E0E"/>
<path d="M395.272 312.979C399.857 314.162 400.078 315.197 395.864 315.788C393.646 316.084 395.124 316.232 400.596 316.306C407.62 316.454 408.507 316.306 407.694 315.345C407.176 314.753 407.028 314.236 407.398 314.236C407.768 314.236 407.472 313.866 406.807 313.496C406.141 313.053 402.518 312.609 398.673 312.387C392.167 312.092 392.019 312.092 395.272 312.979Z" fill="#0E0E0E"/>
<path d="M416.641 313.127C417.75 313.718 418.785 314.679 419.08 315.345C419.524 316.602 423.221 316.898 423.221 315.715C423.221 314.827 417.528 312.018 415.827 312.092C415.236 312.092 415.605 312.535 416.641 313.127Z" fill="#0E0E0E"/>
<path d="M409.173 314.162C409.173 314.605 409.912 314.975 410.873 314.975C411.76 314.975 413.313 315.197 414.348 315.419C415.605 315.788 415.975 315.641 415.457 315.123C414.348 313.94 409.173 313.127 409.173 314.162Z" fill="#0E0E0E"/>
<path d="M382.112 318.154C378.193 320.299 375.531 322.221 375.975 322.665C376.123 322.886 377.601 322.739 379.228 322.369C383.738 321.334 398.378 321.482 406.511 322.739C410.578 323.33 416.271 323.848 419.228 323.848C425.661 323.848 435.79 325.252 437.121 326.288C438.156 327.101 439.118 326.509 438.452 325.4C437.639 324.143 427.509 322.221 420.411 321.925C416.567 321.851 410.43 321.186 406.585 320.52C402.814 319.929 396.234 319.264 391.945 319.19C384.33 319.042 384.108 318.968 385.735 317.785C388.101 315.936 385.808 316.158 382.112 318.154Z" fill="#0E0E0E"/>
<path d="M447.103 325.326C446.216 326.066 444.663 326.953 443.554 327.249C439.117 328.358 441.188 331.537 447.99 334.051C452.278 335.678 457.824 336.565 458.341 335.678C458.563 335.308 457.306 334.79 455.606 334.569C450.8 333.829 445.846 331.168 445.55 329.245C445.328 327.914 445.92 327.323 448.286 326.288C449.986 325.548 451.317 324.735 451.317 324.439C451.317 323.33 448.582 323.848 447.103 325.326Z" fill="#0E0E0E"/>
<path d="M422.925 325.992C422.556 326.509 423.221 326.805 424.848 326.805C426.179 326.805 428.101 327.027 429.136 327.249C430.467 327.619 430.763 327.545 430.245 326.953C429.136 325.77 423.517 325.031 422.925 325.992Z" fill="#0E0E0E"/>
<path d="M388.914 326.731C388.692 327.101 389.653 327.619 391.058 327.84C392.463 328.136 394.311 329.023 395.051 329.911C395.864 330.724 396.899 331.168 397.417 330.872C398.008 330.428 397.786 329.911 396.53 328.949L394.755 327.545H397.565C399.265 327.545 400.226 327.249 399.931 326.805C399.339 325.918 389.431 325.844 388.914 326.731Z" fill="#0E0E0E"/>
<path d="M401.779 327.545C401.779 327.914 402.444 328.284 403.258 328.284C404.071 328.284 404.736 327.914 404.736 327.545C404.736 327.101 404.071 326.805 403.258 326.805C402.444 326.805 401.779 327.101 401.779 327.545Z" fill="#0E0E0E"/>
<path d="M431.724 327.545C431.946 327.914 432.463 328.284 432.907 328.284C433.276 328.284 433.572 327.914 433.572 327.545C433.572 327.101 433.055 326.805 432.389 326.805C431.798 326.805 431.502 327.101 431.724 327.545Z" fill="#0E0E0E"/>
<path d="M409.912 328.284C409.099 328.802 409.912 329.023 412.722 329.023C415.162 329.023 416.493 328.728 416.197 328.284C415.605 327.323 411.391 327.323 409.912 328.284Z" fill="#0E0E0E"/>
<path d="M423.073 331.02C423.517 331.168 424.404 331.168 424.922 331.02C425.365 330.798 424.996 330.65 423.961 330.65C422.925 330.65 422.556 330.798 423.073 331.02Z" fill="#0E0E0E"/>
<path d="M380.781 333.09C376.64 334.79 372.204 338.118 373.017 338.931C373.165 339.153 376.123 338.339 379.45 337.083C382.851 335.9 386.77 334.938 388.174 334.938C389.801 334.938 390.614 334.643 390.319 334.125C390.023 333.681 388.914 333.607 387.657 333.829C386.326 334.125 385.513 334.051 385.513 333.534C385.513 333.09 385.882 332.72 386.252 332.72C386.696 332.72 386.991 332.35 386.991 331.981C386.991 330.872 385.587 331.094 380.781 333.09Z" fill="#0E0E0E"/>
<path d="M403.48 332.203C397.269 332.572 392.167 333.164 392.167 333.46C392.167 334.421 413.757 333.386 415.828 332.277C417.38 331.463 417.454 331.315 416.197 331.389C415.384 331.463 409.617 331.759 403.48 332.203Z" fill="#0E0E0E"/>
<path d="M435.79 331.907C435.79 334.495 447.694 341.297 449.986 340.04C451.687 339.079 451.687 337.896 449.986 337.896C446.881 337.896 440.596 335.382 438.6 333.386C436.308 331.094 435.79 330.872 435.79 331.907Z" fill="#0E0E0E"/>
<path d="M456.715 333.238C457.38 333.386 458.416 333.386 458.933 333.238C459.377 333.016 458.859 332.868 457.602 332.868C456.419 332.868 455.976 333.016 456.715 333.238Z" fill="#0E0E0E"/>
<path d="M461.669 334.199C460.707 334.791 460.781 334.938 461.89 334.938C462.556 334.938 463.147 334.569 463.147 334.199C463.147 333.312 463.073 333.312 461.669 334.199Z" fill="#0E0E0E"/>
<path d="M299.819 335.604C299.228 335.973 299.08 336.639 299.375 337.156C299.819 337.822 300.115 337.748 300.632 336.861C301.52 335.308 301.15 334.79 299.819 335.604Z" fill="#0E0E0E"/>
<path d="M303.294 335.752C301.889 336.491 302.259 338.635 303.811 338.635C304.994 338.635 305.955 336.417 305.142 335.604C304.846 335.308 303.959 335.382 303.294 335.752Z" fill="#0E0E0E"/>
<path d="M297.527 340.927C297.527 343.145 299.153 343.885 300.188 342.184C300.558 341.667 300.928 341.888 301.371 342.998C302.111 344.994 303.737 344.698 304.033 342.48C304.255 341.223 303.885 340.853 302.776 340.853C301.889 340.853 301.224 340.41 301.224 339.818C301.224 339.227 300.484 338.783 299.375 338.783C297.822 338.783 297.527 339.153 297.527 340.927Z" fill="#0E0E0E"/>
<path d="M302.703 346.399C301.741 347.582 302.259 348.987 303.812 348.987C304.921 348.987 305.882 346.99 305.216 345.955C304.625 344.994 303.738 345.142 302.703 346.399Z" fill="#0E0E0E"/>
<path d="M297.675 348.617C296.64 350.835 296.492 353.94 297.379 354.458C297.749 354.68 298.932 353.866 300.041 352.757C302.037 350.687 302.037 350.539 300.854 348.691C299.227 346.325 298.71 346.251 297.675 348.617Z" fill="#0E0E0E"/>
<path d="M320.226 351.722C319.93 351.944 319.708 352.536 319.708 352.979C319.708 353.423 320.078 353.349 320.595 352.831C321.039 352.388 321.261 351.796 321.113 351.574C320.891 351.353 320.447 351.426 320.226 351.722Z" fill="#0E0E0E"/>
<path d="M301.149 356.232C298.488 358.229 298.488 358.303 300.04 359.042C301.371 359.634 301.963 359.486 303.515 357.859C304.551 356.824 305.29 355.567 305.068 355.049C304.698 353.793 304.181 353.94 301.149 356.232Z" fill="#0E0E0E"/>
<path d="M311.945 356.38C311.427 357.268 312.093 357.268 314.163 356.38C315.568 355.789 315.568 355.715 314.015 355.715C313.128 355.641 312.167 355.937 311.945 356.38Z" fill="#0E0E0E"/>
<path d="M304.92 358.598C304.92 359.042 305.734 359.19 306.991 358.894C309.874 358.155 309.948 357.859 307.286 357.859C305.956 357.859 304.92 358.229 304.92 358.598Z" fill="#0E0E0E"/>
<path d="M355.568 361.63C355.199 362.739 355.42 363.478 356.16 363.922C356.899 364.292 357.195 365.105 356.973 365.844C356.603 366.806 356.677 366.879 357.269 366.14C357.638 365.549 358.969 365.253 360.374 365.401C361.853 365.549 362.962 365.253 363.11 364.661C363.332 364.218 363.036 363.774 362.518 363.774C362.075 363.774 360.892 362.961 359.931 361.926C357.86 359.634 356.234 359.56 355.568 361.63Z" fill="#0E0E0E"/>
<path d="M259.819 202.867L326.363 241.962L311.668 279.115L180.798 220.057L259.819 202.867Z" fill="#0E0E0E"/>
<path d="M433.11 290.76L499.654 329.855L412.592 370.059L336.067 329.855L433.11 290.76Z" fill="#0E0E0E"/>
</svg>
