<?xml version="1.0" standalone="no"?>
<!DOCTYPE svg PUBLIC "-//W3C//DTD SVG 20010904//EN"
 "http://www.w3.org/TR/2001/REC-SVG-20010904/DTD/svg10.dtd">
<svg version="1.0" xmlns="http://www.w3.org/2000/svg"
 width="773.000000pt" height="305.000000pt" viewBox="0 0 773.000000 305.000000"
 preserveAspectRatio="xMidYMid meet">

<g transform="translate(0.000000,305.000000) scale(0.100000,-0.100000)"
fill="#000000" stroke="none">
<path d="M160 1655 l0 -695 3725 0 3725 0 0 695 0 695 -3725 0 -3725 0 0 -695z
m7390 -5 l0 -640 -3050 0 -3050 0 0 640 0 640 3050 0 3050 0 0 -640z m-6328
371 c-4 -27 -7 -29 -79 -41 -184 -29 -407 -120 -535 -218 -38 -28 -68 -48 -68
-44 0 6 11 57 25 120 l5 22 -170 0 c-139 0 -170 3 -170 14 0 11 26 106 45 164
3 9 108 12 478 12 l474 0 -5 -29z m-12 -51 c0 -5 -5 -32 -11 -59 l-10 -50
-150 -3 c-82 -2 -149 -2 -149 -1 0 8 137 70 205 94 85 30 115 35 115 19z
m-404 -401 l-73 -274 -152 -3 c-104 -2 -151 1 -151 8 0 24 73 167 124 244 58
87 190 221 270 274 27 17 51 30 53 29 2 -2 -30 -127 -71 -278z"/>
<path d="M3617 2046 c-58 -16 -112 -57 -153 -118 -26 -38 -36 -71 -59 -195
-15 -81 -33 -178 -40 -214 -16 -85 -2 -130 54 -180 61 -55 89 -59 378 -59 290
0 330 6 405 63 80 62 98 104 134 327 36 223 35 245 -18 306 -17 19 -50 45 -72
57 -39 21 -55 22 -311 24 -199 2 -283 -1 -318 -11z m541 -210 c11 -11 -48
-310 -65 -328 -15 -16 -38 -18 -257 -18 -133 0 -248 4 -256 10 -12 8 -10 30
14 162 17 95 34 160 44 172 16 18 31 18 266 13 136 -3 251 -8 254 -11z"/>
<path d="M2366 2039 c-9 -24 -136 -718 -136 -739 0 -19 6 -20 98 -20 l99 0 32
188 c18 103 35 193 37 201 6 19 9 14 128 -196 53 -95 101 -173 105 -173 4 0
84 82 176 183 93 100 172 183 175 185 4 1 -8 -82 -26 -185 -18 -103 -31 -189
-29 -191 9 -9 195 -14 195 -5 0 5 29 166 65 357 36 191 65 356 65 365 0 16
-13 19 -92 25 -87 7 -93 6 -113 -16 -12 -13 -97 -105 -190 -206 l-168 -183
-21 38 c-12 21 -62 113 -111 206 l-90 167 -60 0 c-33 0 -77 3 -97 6 -27 5 -39
3 -42 -7z"/>
<path d="M4492 1958 c-6 -51 -9 -94 -7 -97 3 -2 77 -6 165 -9 88 -3 160 -8
160 -12 0 -5 -20 -131 -45 -281 -24 -150 -43 -274 -42 -275 5 -5 167 -8 172
-3 5 5 105 540 105 561 0 5 75 8 168 8 l167 0 21 94 20 93 -156 6 c-85 4 -281
7 -435 7 l-281 0 -12 -92z"/>
<path d="M5587 2032 c-62 -23 -110 -62 -143 -118 -20 -35 -36 -93 -66 -257
-45 -241 -44 -261 18 -321 64 -62 98 -68 406 -64 260 3 275 4 324 26 63 29
127 92 152 152 26 60 77 394 68 443 -9 46 -55 101 -110 130 -39 21 -54 22
-321 24 -245 2 -286 1 -328 -15z m366 -195 c103 -3 190 -7 193 -9 3 -3 -8 -77
-24 -163 -22 -121 -34 -162 -48 -172 -15 -11 -67 -13 -261 -11 -144 2 -246 7
-252 13 -10 10 38 299 53 324 13 20 45 28 100 24 28 -1 136 -4 239 -6z"/>
<path d="M6515 2018 c-18 -78 -124 -732 -119 -739 3 -5 48 -9 99 -9 90 0 95 1
100 23 3 12 27 139 54 282 l48 260 258 0 259 0 8 -30 c10 -38 2 -62 -24 -76
-11 -6 -115 -14 -244 -17 l-223 -7 142 -217 142 -218 115 0 c63 0 125 -3 138
-6 13 -4 22 -2 22 5 0 6 -34 58 -76 117 -42 58 -75 107 -73 108 2 2 29 11 59
19 116 34 188 101 221 208 36 116 17 231 -47 276 -55 39 -96 43 -481 43 l-373
0 -5 -22z"/>
<path d="M1536 1765 c-3 -16 -8 -60 -12 -96 l-6 -66 233 -6 c129 -4 277 -7
330 -7 l96 0 16 93 c8 50 12 95 8 99 -3 4 -153 9 -333 10 l-327 3 -5 -30z"/>
<path d="M167 814 c-21 -21 -5 -34 43 -34 l50 0 0 -105 0 -105 25 0 25 0 0
105 0 105 51 0 c43 0 50 3 47 18 -3 15 -18 17 -119 20 -63 1 -118 -1 -122 -4z"/>
<path d="M430 695 c0 -118 1 -125 20 -125 18 0 20 7 20 55 l0 55 85 0 85 0 0
-55 c0 -52 1 -55 25 -55 l26 0 -3 123 c-3 114 -4 122 -23 122 -17 0 -20 -8
-23 -52 l-3 -53 -85 0 -84 0 0 55 c0 48 -2 55 -20 55 -19 0 -20 -7 -20 -125z"/>
<path d="M750 695 l0 -125 115 0 c96 0 115 3 115 15 0 12 -17 15 -90 15 l-90
0 0 40 0 40 90 0 c73 0 90 3 90 15 0 12 -17 15 -90 15 l-90 0 0 35 0 35 90 0
c83 0 90 1 90 20 0 19 -7 20 -115 20 l-115 0 0 -125z"/>
<path d="M1189 801 c-26 -21 -32 -82 -11 -103 7 -7 51 -17 100 -23 l87 -10 0
-30 0 -30 -75 0 c-71 0 -74 1 -80 25 -4 16 -13 25 -25 25 -27 0 -31 -36 -7
-65 15 -19 31 -24 80 -28 122 -9 171 20 158 91 -8 41 -37 57 -106 57 -69 0
-102 14 -98 43 3 20 9 22 76 25 67 3 74 1 79 -18 3 -11 14 -20 25 -20 29 0 20
51 -12 67 -40 20 -163 17 -191 -6z"/>
<path d="M1544 789 c-9 -18 -35 -74 -59 -125 -44 -94 -44 -94 -20 -94 16 0 28
9 37 28 12 25 18 27 86 30 71 3 73 2 90 -27 11 -20 25 -31 39 -31 21 0 21 1
-12 73 -74 163 -83 177 -115 177 -23 0 -33 -7 -46 -31z m79 -74 l27 -55 -60 0
-60 0 27 55 c15 30 30 55 33 55 3 0 18 -25 33 -55z"/>
<path d="M1770 695 l0 -125 25 0 c24 0 25 3 25 55 l0 55 75 0 c60 0 75 3 75
15 0 12 -15 15 -75 15 l-75 0 0 35 0 35 81 0 c71 0 80 2 77 18 -3 15 -17 17
-106 20 l-102 3 0 -126z"/>
<path d="M2027 813 c-4 -3 -7 -60 -7 -125 l0 -118 115 0 c96 0 115 3 115 15 0
12 -17 15 -90 15 l-90 0 0 40 0 40 90 0 c73 0 90 3 90 15 0 12 -17 15 -90 15
l-90 0 0 35 0 35 90 0 c83 0 90 1 90 20 0 19 -7 20 -108 20 -60 0 -112 -3
-115 -7z"/>
<path d="M2313 794 c-20 -20 -24 -31 -19 -57 4 -17 11 -36 16 -41 6 -6 49 -15
98 -21 l87 -10 0 -30 0 -30 -75 0 c-71 0 -74 1 -80 25 -4 16 -14 26 -28 28
-18 3 -22 -1 -22 -26 0 -52 30 -67 131 -67 98 0 114 8 125 62 5 26 1 37 -19
57 -22 22 -35 26 -84 26 -86 0 -105 7 -101 39 3 25 6 26 75 29 64 3 72 1 78
-18 4 -11 15 -20 26 -20 16 0 20 6 17 27 -4 38 -39 53 -126 53 -65 0 -76 -3
-99 -26z"/>
<path d="M2560 800 c0 -17 6 -20 50 -20 l50 0 0 -105 0 -105 25 0 25 0 0 105
0 105 51 0 c43 0 50 3 47 18 -3 15 -18 17 -126 20 -117 2 -122 2 -122 -18z"/>
<path d="M2978 814 c-5 -4 -8 -61 -8 -126 l0 -118 25 0 c23 0 25 4 25 45 l0
45 73 0 c87 0 106 11 114 66 4 30 0 45 -15 64 -18 22 -28 24 -113 28 -52 2
-97 1 -101 -4z m177 -74 l0 -35 -67 -3 -68 -3 0 41 0 41 68 -3 67 -3 0 -35z"/>
<path d="M3258 814 c-5 -4 -8 -61 -8 -126 l0 -118 25 0 c23 0 25 4 25 45 l0
45 63 0 c72 0 87 -10 87 -57 0 -29 3 -33 26 -33 26 0 26 2 21 47 -3 26 -10 49
-16 51 -7 2 -5 12 5 28 19 28 12 85 -12 105 -18 15 -204 26 -216 13z m182 -48
c6 -8 10 -25 8 -38 -3 -21 -8 -23 -75 -26 l-73 -3 0 41 0 40 64 0 c43 0 67 -5
76 -14z"/>
<path d="M3584 806 c-17 -7 -34 -21 -38 -31 -9 -25 -7 -140 4 -169 12 -33 74
-50 159 -43 92 7 106 24 106 127 0 109 -15 124 -123 128 -50 1 -88 -3 -108
-12z m174 -38 c7 -7 12 -40 12 -80 0 -56 -3 -69 -19 -78 -27 -14 -134 -13
-149 2 -16 16 -16 140 0 156 7 7 40 12 78 12 38 0 71 -5 78 -12z"/>
<path d="M3870 696 l0 -126 25 0 c23 0 25 4 25 45 l0 45 71 0 c97 0 109 8 109
74 0 73 -10 80 -131 84 l-99 4 0 -126z m186 59 c12 -46 0 -55 -71 -55 l-65 0
0 40 0 40 65 0 c61 0 65 -2 71 -25z"/>
<path d="M4140 720 c0 -56 4 -110 10 -120 28 -53 212 -53 240 0 6 10 10 64 10
120 0 99 0 101 -22 98 -22 -3 -23 -8 -26 -103 -2 -64 -7 -102 -15 -107 -7 -4
-37 -8 -67 -8 -30 0 -60 4 -67 8 -8 5 -13 43 -15 107 -3 95 -4 100 -25 103
-23 3 -23 1 -23 -98z"/>
<path d="M4467 814 c-4 -4 -7 -61 -7 -126 l0 -118 110 0 c91 0 110 3 110 15 0
12 -16 15 -85 15 l-84 0 -3 107 c-2 88 -6 108 -18 111 -9 1 -19 0 -23 -4z"/>
<path d="M4733 794 c-20 -20 -24 -31 -19 -57 4 -17 11 -36 16 -41 6 -6 49 -15
98 -21 l87 -10 0 -30 0 -30 -75 0 c-71 0 -74 1 -80 25 -4 16 -14 26 -28 28
-18 3 -22 -1 -22 -26 0 -52 30 -67 131 -67 98 0 114 8 125 62 5 26 1 37 -19
57 -22 22 -35 26 -84 26 -86 0 -105 7 -101 39 3 25 6 26 75 29 64 3 72 1 78
-18 4 -11 15 -20 26 -20 16 0 20 6 17 27 -4 38 -39 53 -126 53 -65 0 -76 -3
-99 -26z"/>
<path d="M5027 814 c-4 -4 -7 -61 -7 -126 l0 -118 25 0 26 0 -3 122 c-3 101
-6 123 -18 126 -9 1 -19 0 -23 -4z"/>
<path d="M5169 809 c-35 -13 -49 -48 -49 -124 0 -53 4 -69 24 -92 23 -27 28
-28 116 -28 88 0 93 1 116 28 20 23 24 39 24 92 0 83 -11 110 -51 124 -38 13
-144 13 -180 0z m169 -41 c7 -7 12 -40 12 -78 0 -38 -5 -71 -12 -78 -7 -7 -40
-12 -78 -12 -38 0 -71 5 -78 12 -7 7 -12 40 -12 78 0 38 5 71 12 78 7 7 40 12
78 12 38 0 71 -5 78 -12z"/>
<path d="M5457 813 c-4 -3 -7 -60 -7 -125 l0 -118 25 0 c24 0 24 1 27 95 l3
96 74 -96 c67 -87 76 -95 108 -95 l34 0 -3 123 c-3 114 -4 122 -23 122 -18 0
-20 -8 -23 -98 l-3 -98 -79 100 c-61 76 -86 101 -103 101 -13 0 -27 -3 -30 -7z"/>
<path d="M5949 801 c-26 -21 -32 -82 -11 -103 7 -7 51 -17 100 -23 l87 -10 0
-30 0 -30 -75 0 c-71 0 -74 1 -80 25 -4 16 -14 26 -28 28 -18 3 -22 -1 -22
-26 0 -47 31 -66 113 -70 40 -2 84 1 100 7 52 20 60 107 11 130 -14 6 -51 11
-83 11 -63 0 -95 16 -89 46 3 16 13 19 76 22 67 3 74 1 79 -18 3 -11 14 -20
25 -20 29 0 20 51 -12 67 -40 20 -163 17 -191 -6z"/>
<path d="M6180 812 c0 -4 29 -37 65 -72 64 -63 65 -66 65 -117 0 -46 3 -53 20
-53 17 0 20 7 20 53 0 51 1 54 65 117 36 35 65 68 65 72 0 4 -11 8 -24 8 -16
0 -40 -18 -76 -57 l-53 -58 -52 58 c-32 35 -60 57 -74 57 -11 0 -21 -4 -21 -8z"/>
<path d="M6509 801 c-26 -21 -32 -82 -11 -103 7 -7 51 -17 100 -23 l87 -10 0
-30 0 -30 -75 0 c-71 0 -74 1 -80 25 -4 16 -14 26 -28 28 -18 3 -22 -1 -22
-26 0 -52 30 -67 131 -67 98 0 114 8 125 62 5 26 1 37 -19 57 -23 23 -35 26
-90 26 -69 0 -101 15 -95 46 3 16 13 19 76 22 67 3 74 1 79 -18 3 -11 14 -20
25 -20 29 0 20 51 -12 67 -40 20 -163 17 -191 -6z"/>
<path d="M6757 814 c-21 -21 -5 -34 43 -34 l50 0 0 -105 0 -105 25 0 25 0 0
105 0 105 51 0 c43 0 50 3 47 18 -3 15 -18 17 -119 20 -63 1 -118 -1 -122 -4z"/>
<path d="M7020 695 l0 -125 115 0 c96 0 115 3 115 15 0 12 -17 15 -95 15 l-95
0 0 40 0 40 90 0 c73 0 90 3 90 15 0 12 -17 15 -90 15 l-90 0 0 35 0 35 96 0
c86 0 95 2 92 18 -3 15 -18 17 -116 20 l-112 3 0 -126z"/>
<path d="M7290 696 l0 -126 25 0 c25 0 25 1 26 88 l0 87 45 -87 c39 -79 47
-88 72 -88 25 0 32 9 74 93 l47 92 0 -92 c1 -93 1 -93 26 -93 l26 0 -3 123 -3
122 -30 3 c-29 3 -32 -1 -80 -98 -27 -55 -52 -100 -55 -100 -3 0 -27 44 -55
98 -46 90 -52 97 -82 100 l-33 3 0 -125z"/>
</g>
</svg>
